<?xml version="1.0" encoding="UTF-8"?>
<svg id="Layer_1" data-name="Layer 1" xmlns="http://www.w3.org/2000/svg" viewBox="0 0 288.19 92.23">
  <defs>
    <style>
      .cls-1 {
        fill: #fffefe;
        stroke-width: 0px;
      }
    </style>
  </defs>
  <g id="CD9VLX">
    <g>
      <path class="cls-1" d="M120.94,58.69c-8.61,0-17.21,0-25.82,0-.39,0-.73-.03-.82.51-.52,2.93-.45,5.81.7,8.59,1.18,2.86,3.28,4.88,6.11,6.02,5.57,2.25,11.23,2.39,16.83.16,3.6-1.44,6.12-4.07,7.49-7.74.17-.44.4-.54.84-.54,6.02.01,12.04.02,18.06,0,.66,0,.74.18.57.76-2.89,10.03-9.03,17.31-18.51,21.71-3.88,1.8-8.01,2.78-12.26,3.29-4.48.54-8.98.56-13.45.07-12.63-1.4-22.14-9.73-24.9-22.26-1.01-4.59-1.09-9.2-.55-13.85.57-4.9,1.37-9.74,3.11-14.39,2.15-5.76,5.16-10.97,9.49-15.37,5.06-5.16,11.19-8.42,18.18-10.13,4.74-1.16,9.57-1.61,14.42-1.32,6.44.38,12.63,1.78,18.18,5.26,5.88,3.69,9.37,9.04,10.8,15.79.83,3.93.76,7.89.31,11.86-.42,3.72-1.15,7.38-2.14,10.99-.14.5-.34.61-.82.61-8.61-.01-17.21,0-25.82,0ZM97.28,43.02c.22,0,.33,0,.44,0,10.67,0,21.33,0,32,0,.04,0,.09,0,.13,0,.34.04.5-.06.58-.45.13-.66.24-1.32.3-1.99.4-4.64-1.34-8.84-6.41-10.64-3.7-1.31-7.54-1.36-11.36-.77-6.23.96-10.82,4.37-13.94,9.79-.72,1.26-1.34,2.57-1.74,4.05Z"/>
      <path class="cls-1" d="M259.7,85.41c-3.96,2.75-8.26,4.46-12.83,5.52-3.4.79-6.85,1.38-10.33,1.12-6.92-.52-12.98-2.9-17.14-8.81-2.38-3.39-3.43-7.16-3.15-11.35.65-9.63,5.11-17.12,12.77-22.77,2.96-2.18,6.45-3.25,9.99-4.09,4.6-1.09,9.27-1.55,13.99-1.77,4.32-.21,8.62-.07,12.93.16,1.48.08,1.49.08,2.06-1.3.93-2.25,1.63-4.55,1.58-7.02-.06-3.22-1.66-5.32-4.82-5.97-3.4-.7-6.83-.72-10.14.55-3.17,1.22-5.22,3.55-6.22,6.78-.12.38-.26.49-.63.48-6.47,0-12.94-.01-19.41,0-.54,0-.5-.2-.41-.6,2.36-10.11,8.65-16.58,18.37-19.89,2.73-.93,5.56-1.31,8.41-1.67,5.61-.71,11.15-.47,16.59,1.12,4.23,1.25,8.26,3,11.66,5.89,3.33,2.83,5.02,6.49,5.21,10.88.11,2.54-.6,4.91-1.16,7.33-2.15,9.35-4.29,18.69-6.42,28.04-.84,3.71-1.57,7.44-2.38,11.15-.78,3.58-.57,7.13-.08,10.69.07.48-.07.56-.51.56-5.53-.01-11.05-.02-16.58,0-.51,0-.63-.18-.69-.64-.19-1.44-.43-2.88-.67-4.41ZM236.1,70.65c.07.47-.08.94.13,1.4.49,1.08,1.14,2.04,2.05,2.8,2.56,2.13,5.55,2.45,8.69,1.94,3.93-.64,7.34-2.41,10.3-5.03,4.11-3.65,6.57-8.16,6.91-13.72.07-1.05.07-1.04-1.24-1.12-3.91-.25-7.81-.19-11.69.4-2.93.44-5.79,1.18-8.42,2.6-4.28,2.3-6.63,5.82-6.73,10.74Z"/>
      <path class="cls-1" d="M158.86,65.69c2.94,0,5.89.01,8.83-.01.49,0,.67.07.58.62-.92,5.32,1.56,9.14,6.91,10.33,4.01.9,8.03.69,11.95-.61,2.05-.68,3.73-1.85,4.49-4.01.78-2.2-.11-5.67-2.31-7.22-2.16-1.51-4.56-2.55-6.96-3.6-4.32-1.89-8.68-3.71-12.7-6.21-3.15-1.96-5.98-4.26-8.36-7.14-1.83-2.22-3.02-4.67-3.36-7.55-.48-4-.13-7.86,1.72-11.51,1.56-3.07,3.8-5.54,6.52-7.6,3.23-2.44,6.76-4.33,10.69-5.31,3.37-.84,6.81-1.36,10.28-1.61,3.05-.22,6.11-.25,9.16.02,6.33.57,12.39,2.09,17.85,5.5,4.03,2.52,6.27,6.22,7.14,10.82.35,1.86.43,3.74.29,5.63-.03.43-.15.56-.59.56-5.91-.01-11.82,0-17.73-.02-.21,0-.53.19-.51-.34.09-2.87-1.19-4.98-3.64-6.42-1.82-1.06-3.83-1.51-5.89-1.68-2.88-.23-5.74-.14-8.52.76-1.07.34-2.06.85-2.96,1.55-2.25,1.74-3.19,5.78-.36,8.24,1.69,1.47,3.62,2.56,5.6,3.55,3.86,1.93,7.88,3.52,11.75,5.41,1.25.61,2.45,1.29,3.69,1.93,3.87,2,6.46,5.17,8.36,9,1.7,3.41,2.64,6.99,2.42,10.82-.24,4.05-1.7,7.67-4.15,10.88-4.02,5.25-9.39,8.48-15.64,10.36-3.12.94-6.32,1.26-9.56,1.32-5.6.11-11.18-.04-16.72-.94-3.7-.6-7.37-1.39-10.61-3.37-4.65-2.84-7.58-6.88-8.19-12.43-.34-3.15.05-6.21.97-9.23.12-.4.31-.55.75-.55,2.94.02,5.89.01,8.83.01Z"/>
      <path class="cls-1" d="M.01,31.26c-.05-.28.11-.43.21-.6,2.68-4.78,5.38-9.56,8.05-14.34.23-.41.5-.53.95-.53,7.37.01,14.74,0,22.11.02.51,0,.72-.11.85-.65,1.16-4.84,2.38-9.68,3.55-14.52C35.85.13,36.05,0,36.57,0c5.84.02,11.68.02,17.53,0,.54,0,.71.04.57.68-1.07,4.87-2.07,9.75-3.12,14.63-.13.61.14.63.61.63,10.7,0,21.39,0,32.09,0,.24,0,.49,0,.72,0,.1.24-.07.37-.15.51-2.83,4.85-5.67,9.7-8.48,14.56-.23.39-.48.49-.9.49-9.03-.01-18.07,0-27.1-.03-.6,0-.84.15-.98.74-2.27,9.34-4.56,18.67-6.87,27.99-.43,1.74-.94,3.46-1.01,5.26-.11,2.66.3,5.15,2.41,7.05,1.23,1.1,2.76,1.52,4.32,1.88,6.38,1.5,12.45.43,18.33-2.19,2.46-1.1,4.77-2.47,6.98-4.18.22.99.44,1.91.64,2.84.83,3.89,1.63,7.79,2.49,11.68.12.53-.03.76-.42,1.03-4.14,2.86-8.63,4.98-13.42,6.46-4.42,1.36-8.95,2.12-13.57,2-4.52-.12-9.05-.35-13.37-1.98-5.31-2-9.6-5.19-12.14-10.41-1.83-3.75-2.25-7.71-1.53-11.79,2.12-12.08,5.21-23.93,8.26-35.8.21-.82.22-.82-.61-.82-9.08,0-18.16,0-27.23,0-.19,0-.39,0-.57,0Z"/>
    </g>
  </g>
</svg>