<svg id="Laag_2" data-name="Laag 2" xmlns="http://www.w3.org/2000/svg" viewBox="0 0 350.95 43.62"><defs><style>.cls-1{fill:#fff;}.cls-2{fill:#5fb624;}</style></defs><path class="cls-1" d="M56.34,78.19q-6.27,0-9.5-3.2t-3.22-9.43q0-6.24,3.23-9.45t9.49-3.21h9.75v5.28H57.26c-2.42,0-4,.34-4.89,1S51.09,61.14,51,62.93H66.09v5.28H51c.07,1.81.48,3.05,1.26,3.71s2.42,1,4.93,1h8.88v5.27Z" transform="translate(-43.62 -43.74)"/><path class="cls-1" d="M70.36,52.9H82.92q5.7,0,8.13,2.15t2.44,7.11v16H86.81V63c0-1.89-.29-3.12-.88-3.68s-1.76-.84-3.52-.84H77V78.19H70.36Z" transform="translate(-43.62 -43.74)"/><path class="cls-1" d="M110.44,78.19q-6.28,0-9.51-3.2t-3.22-9.43q0-6.24,3.24-9.45t9.49-3.21h9.75v5.28h-8.84c-2.42,0-4,.34-4.89,1s-1.28,1.93-1.34,3.72h15.07v5.28H105.12c.06,1.81.48,3.05,1.25,3.71s2.42,1,4.93,1h8.89v5.27Z" transform="translate(-43.62 -43.74)"/><path class="cls-1" d="M124.45,52.9h11.23c2.62,0,4.46.48,5.52,1.42s1.58,2.6,1.58,5V63.5h-6.37V60.24a2.75,2.75,0,0,0-.53-2,3.73,3.73,0,0,0-2.4-.51h-2.35V78.19h-6.68Z" transform="translate(-43.62 -43.74)"/><path class="cls-1" d="M170.74,77.28c0,3.47-.77,6-2.32,7.64s-4,2.44-7.24,2.44h-13.1V82.22H160A4.29,4.29,0,0,0,163,81.3a3.42,3.42,0,0,0,1-2.69v-.42h-5.44a20.73,20.73,0,0,1-6.07-.63,9,9,0,0,1-3.42-2.16,11.27,11.27,0,0,1-2.78-4.26,15.42,15.42,0,0,1-1-5.53,15.19,15.19,0,0,1,1-5.48,11.31,11.31,0,0,1,2.78-4.25,9.34,9.34,0,0,1,3.79-2.29,19.38,19.38,0,0,1,5.7-.69h12.16ZM160.55,73H164V58.32h-3.47a23.09,23.09,0,0,0-3.52.18,5.4,5.4,0,0,0-1.76.64A5.65,5.65,0,0,0,153,61.61a9.46,9.46,0,0,0-.71,4q0,4,1.8,5.7T160.55,73Z" transform="translate(-43.62 -43.74)"/><path class="cls-1" d="M183.3,50h-7V43.74h7Zm0,28.17h-7V52.9h7Z" transform="translate(-43.62 -43.74)"/><path class="cls-1" d="M200.34,78.19q-6.27,0-9.5-3.2t-3.22-9.43q0-6.24,3.23-9.45t9.49-3.21h9.75v5.28h-8.83c-2.42,0-4,.34-4.89,1s-1.28,1.93-1.35,3.72h15.07v5.28H195c.07,1.81.48,3.05,1.26,3.71s2.42,1,4.93,1h8.88v5.27Z" transform="translate(-43.62 -43.74)"/><path class="cls-2" d="M237.77,78.19H225q-5.8,0-9.07-3.42t-3.26-9.54a15,15,0,0,1,.68-4.61,12.39,12.39,0,0,1,2.07-3.83,9.32,9.32,0,0,1,3.95-3,17,17,0,0,1,6.08-.9h5.72V43.74h6.65Zm-6.65-5.41V58.36h-4q-4.07,0-5.76,1.7c-1.13,1.14-1.7,3-1.7,5.66s.52,4.38,1.56,5.45,2.83,1.61,5.36,1.61Z" transform="translate(-43.62 -43.74)"/><path class="cls-2" d="M250.59,50h-7V43.74h7Zm0,28.17h-7V52.9h7Z" transform="translate(-43.62 -43.74)"/><path class="cls-2" d="M256.36,52.9h11.23c2.62,0,4.46.48,5.52,1.42s1.58,2.6,1.58,5V63.5h-6.38V60.24a2.7,2.7,0,0,0-.53-2,3.73,3.73,0,0,0-2.4-.51H263V78.19h-6.68Z" transform="translate(-43.62 -43.74)"/><path class="cls-2" d="M290.2,78.19q-6.27,0-9.5-3.2t-3.22-9.43q0-6.24,3.23-9.45t9.49-3.21H300v5.28h-8.83c-2.42,0-4.05.34-4.89,1s-1.28,1.93-1.35,3.72H300v5.28H284.88c.07,1.81.48,3.05,1.26,3.71s2.41,1,4.93,1H300v5.27Z" transform="translate(-43.62 -43.74)"/><path class="cls-2" d="M318,72.78h7.1v5.41H316a19,19,0,0,1-5.66-.71,9.76,9.76,0,0,1-3.85-2.31,12.27,12.27,0,0,1-2.76-4.23,14.25,14.25,0,0,1-1-5.29,15,15,0,0,1,1-5.47,11.57,11.57,0,0,1,2.77-4.25,9.71,9.71,0,0,1,3.9-2.31A18.57,18.57,0,0,1,316,52.9h9.07v5.46H318c-3.14,0-5.3.55-6.49,1.63s-1.78,3-1.78,5.66a9,9,0,0,0,.72,3.85A5.91,5.91,0,0,0,312.7,72a5.57,5.57,0,0,0,1.75.63A22.91,22.91,0,0,0,318,72.78Z" transform="translate(-43.62 -43.74)"/><path class="cls-2" d="M327,52.9h4.71V43.74h6.68V52.9h7.06v5h-7.06V68.16q0,2.82,1,3.9a4.29,4.29,0,0,0,3.35,1.09h2.75v5h-6.1a7.48,7.48,0,0,1-5.67-2,8.15,8.15,0,0,1-2-5.87V57.94H327Z" transform="translate(-43.62 -43.74)"/><path class="cls-2" d="M348.37,72.19h5.77v6h-5.77Z" transform="translate(-43.62 -43.74)"/><path class="cls-2" d="M358.9,52.9h12.56q5.7,0,8.13,2.15T382,62.16v16h-6.68V63c0-1.89-.29-3.12-.88-3.68s-1.76-.84-3.52-.84h-5.37V78.19H358.9Z" transform="translate(-43.62 -43.74)"/><path class="cls-2" d="M394.57,78.19h-7V43.74h7Z" transform="translate(-43.62 -43.74)"/></svg>