<?xml version="1.0" encoding="utf-8"?>
<!-- Generator: Adobe Illustrator 27.5.0, SVG Export Plug-In . SVG Version: 6.00 Build 0)  -->
<svg version="1.1" id="Funktional_2" xmlns="http://www.w3.org/2000/svg" xmlns:xlink="http://www.w3.org/1999/xlink" x="0px"
	 y="0px" viewBox="0 0 64 64" style="enable-background:new 0 0 64 64;" xml:space="preserve">
<style type="text/css">
	.st0{fill:#282D37;}
	.st1{fill:#EC0016;}
</style>
<g>
	<path class="st0" d="M32.1,9.2c-3.9,0-7.2,3.2-7.2,7.2s3.2,7.2,7.2,7.2s7.2-3.2,7.2-7.2C39.2,12.4,36,9.2,32.1,9.2z M32.1,21.2
		c-2.7,0-4.7-2.1-4.7-4.7s2.1-4.7,4.7-4.7s4.7,2.1,4.7,4.7S34.7,21.2,32.1,21.2z"/>
	<path class="st1" d="M49.3,9.2c-3.9,0-7.2,3.2-7.2,7.2s3.2,7.2,7.2,7.2s7.2-3.2,7.2-7.2C56.6,12.4,53.4,9.2,49.3,9.2z M49.3,21.2
		c-2.6,0-4.7-2.1-4.7-4.7s2.1-4.7,4.7-4.7s4.7,2.1,4.7,4.7C54.2,19.1,51.9,21.2,49.3,21.2z"/>
	<path class="st1" d="M54.2,30.8H47c-0.7,0-1.2,0.5-1.2,1.2c0,0.6,0.5,1.2,1.2,1.2h0.1h7.2c2,0,3.6,1.5,3.6,3.6v16.9
		c0,0.6,0.5,1.2,1.2,1.2c0.7,0,1.2-0.6,1.2-1.3V36.8C60.1,33.4,57.5,30.8,54.2,30.8z"/>
	<path class="st0" d="M37.1,30.8h-7.2c-0.7,0-1.2,0.5-1.2,1.2c0,0.6,0.5,1.2,1.2,1.2h7.2c2,0,3.6,1.5,3.6,3.6v16.9
		c0,0.6,0.5,1.2,1.2,1.2c0.7,0,1.2-0.6,1.2-1.3V36.8C43.2,33.4,40.4,30.8,37.1,30.8z"/>
	<path class="st0" d="M14.7,23.6c4,0,7.2-3.2,7.2-7.2c0-3.9-3.1-7.1-7-7.2h-0.2c-3.9,0-7.2,3.2-7.2,7.2
		C7.4,20.4,10.6,23.6,14.7,23.6z M15.3,11.7c0.2,0,0.6,0.1,0.6,0.1c2,0.6,3.6,2.5,3.6,4.6c0,2.6-2.1,4.7-4.7,4.7
		c-2.6,0-4.7-2.1-4.7-4.7s2.1-4.7,4.7-4.7C14.7,11.6,14.9,11.6,15.3,11.7z"/>
	<path class="st0" d="M19.4,30.8H9.8c-3.3,0-6.1,2.7-6.1,6.1v16.6c0,0.7,0.6,1.3,1.2,1.3c0.7,0,1.2-0.6,1.2-1.3V36.9
		c0-2,1.7-3.7,3.6-3.7h9.6c2,0,3.6,1.7,3.6,3.7v16.6c0,0.7,0.6,1.3,1.2,1.3c0.7,0,1.2-0.6,1.2-1.3V36.9
		C25.5,33.6,22.7,30.8,19.4,30.8z"/>
</g>
</svg>
