<svg xmlns="http://www.w3.org/2000/svg" id="Illustrativ 2" width="64" height="64" viewBox="0 0 64 64"><g fill="none" fill-rule="evenodd" class="symbols"><g class="icon-style" transform="translate(11 3)"><path fill="#EC0016" d="M39.14 36.632c.555.353 2.19.47 1.728 1.01-2.548 4.366-5.794 6.83-11.348 10.212-1.64 1-4.925 1.646-8.52 1.646-3.595 0-6.88-.647-8.52-1.646-5.385-3.28-8.944-6.29-10.685-9.087.375-.75.73-1.462 1.064-2.135 1.655 3.28 5.367 6.29 10.661 9.514 1.27.774 4.22 1.354 7.48 1.354 3.262 0 6.21-.58 7.48-1.354 5.135-3.127 8.966-6.199 10.66-9.514Z" class="puls"></path><path fill="#282D37" fill-rule="nonzero" d="M20.998 0c6.323 0 10.538 1.3 14.59 4.194C39.654 7.094 42 12.237 42 19c0 2.539-.077 5.109-.217 7.945l-.308 5.536c-.504 8.489-3.34 15.882-7.494 19.217l-.499 2.73a4 4 0 0 1-3.64 3.27 120.13 120.13 0 0 1-8.842.305c-3.139 0-6.085-.101-8.84-.305-1.748-.13-3.23-1.355-3.64-3.268-.126-.648-.293-1.557-.5-2.726-2.8-2.25-6.767-8.454-7.472-18.856L.212 26.87A158.31 158.31 0 0 1 0 19C0 12.25 2.345 7.098 6.39 4.195 10.413 1.308 14.665 0 20.998 0Zm10.703 53.054a7.4 7.4 0 0 1-1.537.433c-2.009.317-4.73.488-8.164.513-.716.032-1.382.032-2 0-4.162-.21-4.896.031-8.176-.513a7.345 7.345 0 0 1-1.522-.427l.186 1.01a2 2 0 0 0 1.82 1.633c2.704.2 5.601.3 8.692.3 3.09 0 5.989-.1 8.695-.3.854-.063 1.615-.64 1.82-1.635.068-.314.13-.652.186-1.014ZM20.998 2c-5.923 0-9.766 1.183-13.441 3.82C4.065 8.326 2 12.862 2 19c0 2.534.076 5.08.215 7.877l.307 5.505c.604 10.034 4.676 18.31 9.63 19.132C15.86 52 16.582 52 21 52c4.417 0 6.159-.058 8.835-.486 4.97-.829 9.04-9.08 9.643-19.132l.307-5.534C39.924 24.042 40 21.502 40 19c0-6.149-2.066-10.675-5.573-13.178C30.719 3.175 26.91 2 20.998 2ZM10.925 30.666a2 2 0 0 1 1.05-.077l2.772.797c.61.177 1.192.664 1.431 1.625.304 1.102.778 2.766 1.423 4.992a2 2 0 0 1-1.378 2.47 2.842 2.842 0 0 1-.546.076h-1.262c-1.208 0-2.263-.61-2.829-2.002a862.99 862.99 0 0 1-1.881-5.33 2 2 0 0 1 1.22-2.551Zm18.931-.035a2 2 0 0 1 2.49 2.437l-1.928 5.48a3 3 0 0 1-2.64 1.995l-1.451.006a2 2 0 0 1-1.96-2.4c.751-2.631 1.223-4.345 1.415-5.14.268-1.111.951-1.433 1.322-1.573l2.752-.805Zm-18.265 1.921 1.881 5.33a1 1 0 0 0 .817.659l1.388.008-1.488-5.243-2.598-.754Zm18.822 0-2.602.754-1.484 5.243h1.262a1 1 0 0 0 .894-.551l1.93-5.446ZM21 5c3.978 0 7.254.518 9.83 1.555 4.052 1.482 6.356 5.83 5.662 9.917a46.136 46.136 0 0 1-1.313 5.604 6.5 6.5 0 0 1-5.244 4.558l-3.04.465a39 39 0 0 1-11.79 0l-3.025-.463a6.5 6.5 0 0 1-5.244-4.56 48.47 48.47 0 0 1-.77-2.884 96.38 96.38 0 0 1-.547-2.707 9 9 0 0 1 5.308-9.787C13.453 5.566 16.844 5 21 5Zm0 2c-3.904 0-7.033.522-9.381 1.534-2.89 1.245-4.713 4.3-4.133 7.593.07.358.4 2.09.534 2.664.214.917.454 1.785.732 2.711a4.5 4.5 0 0 0 3.417 3.12l3.238.5c3.475.531 7.756.531 11.186 0 1.014-.153 2.027-.308 3.04-.465a4.5 4.5 0 0 0 3.63-3.156 45.262 45.262 0 0 0 1.257-5.364c.525-3.093-1.038-6.435-4.437-7.727C27.77 7.48 24.74 7 21 7Z" class="base"></path></g></g></svg>