<svg xmlns="http://www.w3.org/2000/svg" viewBox="0 0 200 26">
	<g>
		<path d="M18.2,5c-1.3-0.9-2.8-1.6-4.6-2C11.9,2.5,10,2.3,8.1,2.3H0v23.2h8.8c1.8,0,3.6-0.3,5.2-0.8
			c1.7-0.5,3.1-1.2,4.4-2.2c1.3-1,2.3-2.2,3-3.6c0.7-1.4,1.1-3.1,1.1-5c0-2.1-0.4-3.9-1.2-5.4C20.6,7.1,19.6,5.9,18.2,5z M16.3,17.1
			c-0.4,0.9-1.1,1.6-1.8,2.2c-0.8,0.6-1.7,1-2.8,1.2c-1.1,0.2-2.2,0.4-3.5,0.4H5.4V7h3.2c1.1,0,2.2,0.1,3.2,0.4
			c1,0.3,1.9,0.7,2.7,1.2c0.8,0.5,1.4,1.2,1.8,2.1c0.4,0.8,0.7,1.8,0.7,3C16.9,15,16.7,16.2,16.3,17.1z" style="fill:#1EBEBE"/>
		<path d="M40.1,11.5c-0.7-0.7-1.5-1.3-2.5-1.7c-1-0.4-2.1-0.6-3.3-0.6c-1.3,0-2.5,0.2-3.6,0.6c-1.1,0.4-2.1,1-3,1.7
			c-0.8,0.7-1.5,1.6-2,2.6c-0.5,1-0.7,2.2-0.7,3.4c0,1.3,0.2,2.4,0.7,3.4c0.5,1,1.1,1.9,2,2.6c0.8,0.7,1.8,1.3,3,1.7
			c1.1,0.4,2.4,0.6,3.6,0.6c1.4,0,2.7-0.3,3.9-0.8c1.3-0.5,2.3-1.3,3.1-2.3l-3.6-2.5c-0.4,0.6-0.9,1-1.5,1.4
			c-0.6,0.4-1.3,0.5-2.2,0.5c-1,0-1.9-0.3-2.6-0.8c-0.7-0.6-1.1-1.3-1.3-2.2h12v-1.5c0-1.3-0.2-2.4-0.6-3.4
			C41.3,13.1,40.7,12.2,40.1,11.5z M30.2,15.8c0-0.4,0.1-0.8,0.3-1.1c0.2-0.4,0.4-0.7,0.7-1c0.3-0.3,0.7-0.5,1.1-0.7
			c0.4-0.2,0.9-0.3,1.5-0.3c0.9,0,1.7,0.3,2.3,0.9c0.6,0.6,0.9,1.3,0.9,2.1H30.2z" style="fill:#1EBEBE"/>
		<path d="M86,9.2c-1.1,0-2.1,0.2-2.9,0.7c-0.8,0.5-1.4,1.2-2,2.2h-0.1V9.6H76v15.9h5.2v-6.7c0-0.8,0-1.5,0.1-2.2
			c0.1-0.7,0.3-1.2,0.6-1.7c0.3-0.5,0.8-0.8,1.3-1.1s1.4-0.4,2.3-0.4c0.4,0,0.8,0,1.1,0.1c0.4,0.1,0.7,0.1,1.1,0.2V9.4
			c-0.3-0.1-0.5-0.1-0.8-0.1C86.6,9.2,86.3,9.2,86,9.2z" style="fill:#1EBEBE"/>
		<rect x="90.1" y="9.6" width="5.2" height="15.9" style="fill:#1EBEBE"/>
		<path d="M113.5,11.5c-0.7-0.7-1.5-1.3-2.5-1.7c-1-0.4-2.1-0.6-3.3-0.6c-1.3,0-2.5,0.2-3.6,0.6c-1.1,0.4-2.1,1-3,1.7
			c-0.8,0.7-1.5,1.6-2,2.6c-0.5,1-0.7,2.2-0.7,3.4c0,1.3,0.2,2.4,0.7,3.4c0.5,1,1.1,1.9,2,2.6c0.8,0.7,1.8,1.3,3,1.7
			c1.1,0.4,2.4,0.6,3.6,0.6c1.4,0,2.7-0.3,3.9-0.8c1.3-0.5,2.3-1.3,3.1-2.3l-3.6-2.5c-0.4,0.6-0.9,1-1.5,1.4
			c-0.6,0.4-1.3,0.5-2.2,0.5c-1,0-1.9-0.3-2.6-0.8c-0.7-0.6-1.1-1.3-1.3-2.2h12v-1.5c0-1.3-0.2-2.4-0.6-3.4
			C114.7,13.1,114.2,12.2,113.5,11.5z M103.6,15.8c0-0.4,0.1-0.8,0.3-1.1c0.2-0.4,0.4-0.7,0.7-1c0.3-0.3,0.7-0.5,1.1-0.7
			c0.4-0.2,0.9-0.3,1.5-0.3c0.9,0,1.7,0.3,2.3,0.9c0.6,0.6,0.9,1.3,0.9,2.1H103.6z" style="fill:#1EBEBE"/>
		<path d="M129.8,16.9c-0.7-0.4-1.4-0.6-2.1-0.8c-0.7-0.2-1.4-0.3-2.1-0.5c-0.7-0.1-1.2-0.3-1.6-0.5
			c-0.4-0.2-0.6-0.5-0.6-0.9c0-0.5,0.2-0.8,0.6-1c0.4-0.2,0.8-0.3,1.3-0.3c1.2,0,2.2,0.4,3,1.3l3.2-3c-0.8-0.8-1.7-1.3-2.9-1.6
			c-1.1-0.3-2.2-0.5-3.3-0.5c-0.9,0-1.7,0.1-2.6,0.3c-0.9,0.2-1.6,0.5-2.3,1c-0.7,0.4-1.2,1-1.6,1.7c-0.4,0.7-0.6,1.5-0.6,2.4
			c0,1,0.2,1.8,0.6,2.4c0.4,0.6,1,1.1,1.6,1.4c0.7,0.3,1.4,0.6,2.1,0.7c0.7,0.2,1.4,0.3,2.1,0.5c0.7,0.1,1.2,0.3,1.6,0.5
			c0.4,0.2,0.6,0.5,0.6,0.9c0,0.4-0.2,0.7-0.7,0.9c-0.5,0.2-1,0.2-1.6,0.2c-0.8,0-1.5-0.1-2.1-0.4c-0.6-0.3-1.1-0.7-1.6-1.3l-3.1,3.3
			c0.8,0.8,1.8,1.4,3,1.7c1.2,0.3,2.4,0.5,3.6,0.5c0.9,0,1.8-0.1,2.7-0.2c0.9-0.2,1.7-0.4,2.5-0.9c0.7-0.4,1.3-0.9,1.8-1.6
			c0.5-0.7,0.7-1.5,0.7-2.5c0-1-0.2-1.8-0.6-2.4C131,17.7,130.5,17.2,129.8,16.9z" style="fill:#1EBEBE"/>
		<rect x="134.8" y="0.7" width="5.2" height="24.8" style="fill:#1EBEBE"/>
		<path d="M157.4,11.3c-0.6-0.7-1.4-1.2-2.3-1.6c-1-0.4-2.2-0.5-3.7-0.5c-1.4,0-2.7,0.2-4,0.6c-1.3,0.4-2.4,1.1-3.4,1.9
			l2.8,2.7c0.6-0.6,1.2-1.1,1.9-1.4c0.7-0.3,1.5-0.5,2.3-0.5c0.9,0,1.7,0.3,2.3,0.8c0.7,0.5,1,1.2,1,2.1c-0.7,0-1.5,0-2.3,0
			c-0.8,0-1.7,0.1-2.5,0.2c-0.8,0.1-1.6,0.3-2.4,0.5c-0.8,0.2-1.5,0.6-2.1,1c-0.6,0.4-1.1,0.9-1.4,1.6c-0.4,0.6-0.5,1.4-0.5,2.3
			c0,0.8,0.2,1.5,0.5,2.1c0.3,0.6,0.8,1.1,1.3,1.5c0.6,0.4,1.2,0.7,1.9,0.9c0.7,0.2,1.5,0.3,2.3,0.3c1.1,0,2.1-0.2,3-0.6
			c1-0.4,1.7-1,2.3-1.8h0.1v2h4.8v-8.1c0-1.3-0.1-2.5-0.3-3.5C158.4,12.9,158,12,157.4,11.3z M154.2,19.6c0,0.5-0.1,0.9-0.3,1.3
			c-0.2,0.4-0.5,0.7-0.9,0.9c-0.4,0.2-0.8,0.4-1.3,0.6c-0.5,0.1-1,0.2-1.5,0.2c-0.6,0-1.1-0.1-1.7-0.4c-0.5-0.3-0.8-0.7-0.8-1.3
			c0-0.5,0.2-1,0.6-1.3c0.4-0.3,0.8-0.5,1.4-0.7c0.5-0.2,1.1-0.2,1.7-0.3c0.6,0,1.1,0,1.5,0h1.3V19.6z" style="fill:#1EBEBE"/>
		<path d="M177.2,11.4c-0.4-0.7-1.1-1.2-1.9-1.6c-0.8-0.4-1.9-0.6-3.2-0.6c-0.6,0-1.2,0.1-1.7,0.2
			c-0.5,0.2-1,0.4-1.4,0.6c-0.4,0.2-0.8,0.5-1.1,0.8c-0.3,0.3-0.5,0.6-0.7,0.9h-0.1V9.6h-5v15.9h5.2v-7.9c0-0.5,0-1,0.1-1.5
			c0.1-0.5,0.2-0.9,0.4-1.3c0.2-0.4,0.5-0.7,0.9-0.9c0.4-0.2,1-0.3,1.6-0.3c0.7,0,1.2,0.1,1.5,0.4c0.4,0.3,0.6,0.6,0.8,1
			c0.2,0.4,0.3,0.9,0.3,1.4c0,0.5,0.1,1,0.1,1.4v7.8h5.2v-8.8c0-1.1-0.1-2.1-0.2-3C178,12.8,177.7,12,177.2,11.4z" style="fill:#1EBEBE"/>
		<path d="M194.4,0.7v10.6h-0.1c-0.6-0.8-1.4-1.3-2.3-1.6c-0.9-0.3-1.9-0.5-3-0.5c-1.2,0-2.3,0.2-3.2,0.7
			c-0.9,0.5-1.7,1.1-2.4,1.9c-0.7,0.8-1.2,1.7-1.5,2.7c-0.4,1-0.5,2.1-0.5,3.2c0,1.2,0.2,2.3,0.6,3.3c0.4,1,0.9,1.9,1.7,2.6
			c0.7,0.7,1.6,1.3,2.6,1.7c1,0.4,2.1,0.6,3.4,0.6c0.6,0,1.1-0.1,1.7-0.2c0.5-0.2,1-0.3,1.5-0.6c0.4-0.2,0.8-0.5,1.2-0.8
			c0.3-0.3,0.6-0.6,0.8-0.9h0.1v2.1h4.8V0.7H194.4z M193.8,20.5c-0.7,0.7-1.7,1.1-3.1,1.1s-2.3-0.4-3.1-1.1c-0.7-0.7-1.1-1.7-1.1-2.9
			c0-1.2,0.4-2.2,1.1-2.9c0.7-0.7,1.7-1.1,3.1-1.1s2.3,0.4,3.1,1.1c0.7,0.7,1.1,1.7,1.1,2.9C194.9,18.8,194.5,19.7,193.8,20.5z" style="fill:#1EBEBE"/>
		<rect x="56.8" y="0" width="18.2" height="5.8" style="fill:#1EBEBE"/>
		<rect x="56.8" y="19.7" width="6.1" height="5.8" style="fill:#1EBEBE"/>
		<rect x="56.8" y="9.9" width="12.2" height="5.8" style="fill:#1EBEBE"/>
		<rect x="90.1" y="0" width="5.4" height="5.2" style="fill:#1EBEBE"/>
	</g>
</svg>
