<svg xmlns="http://www.w3.org/2000/svg" width="648" height="607" viewBox="0 0 648 607" fill="none">
<path fill-rule="evenodd" clip-rule="evenodd" d="M282.008 26.3604C317.155 -8.7868 374.14 -8.7868 409.287 26.3604L621.633 238.706C643.085 260.158 651.443 289.744 646.71 317.536C644.036 336.103 635.557 353.994 621.272 368.279L408.927 580.625C373.779 615.772 316.795 615.772 281.647 580.625C246.5 545.478 246.5 488.493 281.647 453.346L340.633 394.36H90.0078C40.3022 394.36 0.0078125 354.066 0.0078125 304.36C0.0078125 254.655 40.3022 214.36 90.0078 214.36H342.729L282.008 153.64C246.861 118.492 246.861 61.5076 282.008 26.3604Z" fill="#D9D9D9"/>
</svg>