<svg id="Layer_1" data-name="Layer 1" xmlns="http://www.w3.org/2000/svg" viewBox="0 0 1465.22 344.38"><defs><style>.cls-1{fill:#f9f9f9;}.cls-2{fill:#ff3746;}</style></defs><polygon class="cls-1" points="52.06 47.74 0 47.74 92.01 208.06 184.02 47.74 131.96 47.74 92.01 123.11 52.06 47.74"/><rect class="cls-1" x="196.13" y="47.74" width="44.51" height="158.72"/><path class="cls-1" d="M749.07,410.65a77.25,77.25,0,0,0-57.44,25.15,84.61,84.61,0,0,0-.06,114.35,79,79,0,0,0,58.9,25.52c52,0,69.63-39.64,73.37-50.11H778c-5,8-15,12.61-27.52,12.61-14.59,0-31.78-8.43-36.28-32.11l-.35-1.86H828a113.67,113.67,0,0,0,.75-12.24C828.78,447.12,793,410.65,749.07,410.65Zm-34.63,67.26.39-1.88c2.76-13.51,13.38-29.28,34.24-29.28,20.58,0,31.27,15.76,34.17,29.26l.41,1.9Z" transform="translate(-227.39 -367.81)"/><path class="cls-1" d="M926.51,410.65A82.51,82.51,0,1,0,1009,493.16,82.61,82.61,0,0,0,926.51,410.65Zm0,123.32c-21.67,0-38-17.55-38-40.81s16.34-40.81,38-40.81,38,17.55,38,40.81S948.17,534,926.51,534Z" transform="translate(-227.39 -367.81)"/><path class="cls-1" d="M1667.81,525.82h-2.55a24.8,24.8,0,0,0,0,49.6h2.55a24.8,24.8,0,1,0,0-49.6Z" transform="translate(-227.39 -367.81)"/><path class="cls-1" d="M1535.74,410.65c-44.62,0-78.26,35.47-78.26,82.51,0,30.62,13.39,49.88,24.63,60.66a78.91,78.91,0,0,0,54.07,21.85c21.66,0,35.41-7.74,42.8-12.8l4.1,11.4h39.36V367.81H1578v61.32h0C1568.31,417.8,1552.4,410.65,1535.74,410.65ZM1540,534a36.82,36.82,0,0,1-26.23-10.54c-7.69-7.65-11.75-18.67-11.75-31.88,0-19.25,14.2-39.16,38-39.16,11.43,0,21.18,4.4,28.2,12.72a43.39,43.39,0,0,1,9.79,28.05C1578,516.42,1561.66,534,1540,534Z" transform="translate(-227.39 -367.81)"/><path class="cls-1" d="M1166.34,410.65c-44.62,0-78.27,35.47-78.27,82.51,0,30.62,13.4,49.88,24.63,60.66a78.91,78.91,0,0,0,54.07,21.85c21.67,0,35.41-7.74,42.8-12.8l4.1,11.4H1253V415.52h-42.88l-1.56,13.61h0C1198.9,417.8,1183,410.65,1166.34,410.65ZM1170.6,534a36.8,36.8,0,0,1-26.23-10.54c-7.69-7.65-11.76-18.67-11.76-31.88,0-19.25,14.21-39.16,38-39.16,11.43,0,21.18,4.4,28.2,12.72a43.39,43.39,0,0,1,9.79,28.05C1208.59,516.42,1192.25,534,1170.6,534Z" transform="translate(-227.39 -367.81)"/><path class="cls-1" d="M565.89,410.65c-44.62,0-78.27,35.47-78.27,82.51,0,30.62,13.39,49.88,24.63,60.66a78.91,78.91,0,0,0,54.07,21.85c21.67,0,35.41-7.74,42.8-12.8l4.1,11.4h39.36V367.81H608.13v61.32h0C598.45,417.8,582.54,410.65,565.89,410.65ZM570.15,534a36.8,36.8,0,0,1-26.23-10.54c-7.7-7.65-11.76-18.67-11.76-31.88,0-19.25,14.21-39.16,38-39.16,11.43,0,21.18,4.4,28.19,12.72a43.33,43.33,0,0,1,9.79,28.05C608.13,516.42,591.8,534,570.15,534Z" transform="translate(-227.39 -367.81)"/><rect class="cls-1" x="798.9" width="44.51" height="206.46"/><path class="cls-1" d="M1319.34,498.7c0-29.21,13.8-46.31,38-46.31,23.78,0,37.32,13.3,37.32,39.2l.09,82.68h45.18V485c0-51-24.38-74.32-70.49-74.32-18.65,0-40.4,8.72-50.09,20.05l-1.57-15.18H1274.9V574.27h44.44Z" transform="translate(-227.39 -367.81)"/><path class="cls-2" d="M844.33,644.12v68.07h231.34V644.12Z" transform="translate(-227.39 -367.81)"/><path class="cls-1" d="M873.17,661.53h16.32c4,0,7.11,1,9.18,3.12a8.14,8.14,0,0,1,2.42,6v.1a8.64,8.64,0,0,1-.38,2.67,8.18,8.18,0,0,1-2.45,3.72,9.51,9.51,0,0,1-1.77,1.2,11.86,11.86,0,0,1,4.8,3.15,8,8,0,0,1,1.76,5.51v.1a9.08,9.08,0,0,1-.93,4.22,8.24,8.24,0,0,1-2.67,3,12.45,12.45,0,0,1-4.16,1.8,22.14,22.14,0,0,1-5.4.61H873.17Zm14.68,14.24a8.07,8.07,0,0,0,4.08-.88,3,3,0,0,0,1.51-2.84v-.11a3.08,3.08,0,0,0-1.31-2.68,6.38,6.38,0,0,0-3.77-.93h-7.65v7.44ZM889.91,690a7.53,7.53,0,0,0,4-.93,3.21,3.21,0,0,0,1.46-2.9V686a3.32,3.32,0,0,0-1.36-2.79,7.28,7.28,0,0,0-4.38-1h-8.95V690Z" transform="translate(-227.39 -367.81)"/><path class="cls-1" d="M919.39,682.86l-13.53-21.33h9.06l8.4,14.14,8.55-14.14h8.8l-13.53,21.18v14h-7.75Z" transform="translate(-227.39 -367.81)"/><path class="cls-1" d="M960.6,661.53h16.1q6.69,0,10.26,3.58a10.88,10.88,0,0,1,3,8v.09a11.05,11.05,0,0,1-2.09,7,12,12,0,0,1-5.46,3.95l8.6,12.58h-9l-7.55-11.27h-6.09v11.27H960.6Zm15.59,17.11a6.48,6.48,0,0,0,4.41-1.36,4.61,4.61,0,0,0,1.53-3.62v-.1a4.51,4.51,0,0,0-1.61-3.78,7.1,7.1,0,0,0-4.48-1.26h-7.7v10.12Z" transform="translate(-227.39 -367.81)"/><path class="cls-1" d="M1005.17,668.68H994.45v-7.15h29.18v7.15h-10.71v28.07h-7.75Z" transform="translate(-227.39 -367.81)"/><path class="cls-1" d="M1029.56,661.53h7.75v28.23h16.52v7h-24.27Z" transform="translate(-227.39 -367.81)"/></svg>