<?xml version="1.0" encoding="UTF-8" standalone="no"?>
<!DOCTYPE svg PUBLIC "-//W3C//DTD SVG 1.1//EN" "http://www.w3.org/Graphics/SVG/1.1/DTD/svg11.dtd">
<svg width="100%" height="100%" viewBox="0 0 180 48" version="1.1" xmlns="http://www.w3.org/2000/svg" xmlns:xlink="http://www.w3.org/1999/xlink" xml:space="preserve" xmlns:serif="http://www.serif.com/" style="fill-rule:evenodd;clip-rule:evenodd;stroke-linejoin:round;stroke-miterlimit:2;">
    <g transform="matrix(1.4672,0,0,1.4672,-42.2639,-11.484)">
        <g transform="matrix(1,0,0,1,28.5196,7.08003)">
            <path d="M65.286,27.061L65.286,12.96C65.286,12.017 65.724,11.546 66.598,11.546C67.473,11.546 67.869,12.017 67.869,12.96L67.869,27.824C67.869,29.071 67.297,29.695 66.148,29.695L60.794,29.695C58.448,29.695 56.872,28.93 56.075,27.401C55.499,26.308 55.212,24.819 55.212,22.934L55.212,12.96C55.212,12.017 55.636,11.546 56.484,11.546C57.333,11.546 57.795,12.017 57.795,12.96L57.795,22.897C57.795,24.475 58.057,25.563 58.583,26.163C59.105,26.76 60.054,27.061 61.429,27.061L65.286,27.061Z" style="fill:rgb(35,48,103);fill-rule:nonzero;"/>
        </g>
        <g transform="matrix(1,0,0,1,28.5196,7.08003)">
            <path d="M80.756,14.181L76.597,14.181C74.375,14.181 73.266,15.331 73.266,17.62L73.266,23.622C73.266,25.911 74.375,27.059 76.597,27.059L80.756,27.059L80.756,14.181ZM80.756,11.548L80.756,5.623C80.756,4.68 81.192,4.209 82.066,4.209C82.94,4.209 83.341,4.68 83.341,5.623L83.341,28.091C83.341,29.161 82.816,29.695 81.768,29.695L76.561,29.695C74.513,29.695 73.022,29.23 72.087,28.3C71.15,27.37 70.68,25.874 70.68,23.812L70.68,17.431C70.68,15.393 71.128,13.903 72.029,12.962C72.93,12.019 74.388,11.548 76.412,11.548L80.756,11.548Z" style="fill:rgb(35,48,103);fill-rule:nonzero;"/>
        </g>
        <g transform="matrix(1,0,0,1,28.5196,7.08003)">
            <path d="M95.96,27.061L95.96,12.96C95.96,12.017 96.394,11.546 97.274,11.546C98.153,11.546 98.546,12.017 98.546,12.96L98.546,27.824C98.546,29.071 97.968,29.695 96.823,29.695L91.466,29.695C89.116,29.695 87.544,28.93 86.745,27.401C86.171,26.308 85.884,24.819 85.884,22.934L85.884,12.96C85.884,12.017 86.311,11.546 87.158,11.546C88.005,11.546 88.47,12.017 88.47,12.96L88.47,22.897C88.47,24.475 88.732,25.563 89.258,26.163C89.78,26.76 90.73,27.061 92.101,27.061L95.96,27.061Z" style="fill:rgb(35,48,103);fill-rule:nonzero;"/>
        </g>
        <g transform="matrix(1,0,0,1,28.5196,7.08003)">
            <path d="M120.18,26.943L120.18,21.824L116.622,21.824C114.073,21.824 112.799,22.679 112.799,24.382C112.799,25.175 113.101,25.797 113.698,26.255C114.298,26.715 115.098,26.943 116.098,26.943L120.18,26.943ZM120.18,19.187L120.18,18.118C120.18,16.692 119.982,15.679 119.582,15.08C119.182,14.482 118.483,14.181 117.484,14.181L115.63,14.181C114.678,14.181 114.208,13.751 114.208,12.883C114.208,12.015 114.68,11.546 115.63,11.546L117.035,11.546C119.006,11.546 120.456,12.023 121.378,12.978C122.305,13.932 122.764,15.43 122.764,17.468L122.764,27.324C122.764,28.218 122.644,28.835 122.393,29.179C122.138,29.523 121.702,29.694 121.081,29.694L116.549,29.694C114.847,29.694 113.537,29.426 112.616,28.888C111.841,28.432 111.216,27.782 110.742,26.942C110.267,26.101 110.031,25.237 110.031,24.343C110.031,23.45 110.267,22.562 110.742,21.745C111.216,20.93 111.846,20.301 112.63,19.854C113.417,19.409 114.459,19.185 115.761,19.185L120.18,19.185L120.18,19.187Z" style="fill:rgb(35,48,103);fill-rule:nonzero;"/>
        </g>
        <g transform="matrix(1,0,0,1,28.5196,7.08003)">
            <path d="M111.004,11.577L106.742,11.577C104.767,11.577 103.319,12.055 102.396,13.009C102.36,13.046 102.335,13.097 102.301,13.136C101.447,14.093 101.009,15.54 101.009,17.499L101.009,27.355C101.009,28.249 101.138,28.866 101.386,29.21C101.574,29.466 101.903,29.595 102.301,29.659C102.701,29.595 103.032,29.468 103.222,29.21C103.468,28.866 103.595,28.249 103.595,27.355L103.595,18.147C103.595,16.719 103.796,15.706 104.195,15.108C104.595,14.511 105.293,14.209 106.291,14.209L111.006,14.209C111.954,14.209 112.428,13.778 112.428,12.91C112.428,12.043 111.952,11.574 111.006,11.574" style="fill:rgb(35,48,103);fill-rule:nonzero;"/>
        </g>
        <g transform="matrix(1,0,0,1,28.5196,7.08003)">
            <path d="M56.466,3.777L51.224,3.777C49.251,3.777 47.803,4.255 46.877,5.209C46.841,5.246 46.817,5.297 46.783,5.336C45.929,6.293 45.491,7.74 45.491,9.699L45.491,27.387C45.491,28.28 45.615,28.899 45.866,29.241C46.051,29.5 46.41,29.622 46.807,29.686C47.193,29.624 47.517,29.496 47.699,29.241C47.95,28.899 48.076,28.28 48.076,27.387L48.076,14.178L51.782,14.178C52.73,14.178 53.207,13.747 53.207,12.879C53.207,12.012 52.73,11.543 51.782,11.543L48.076,11.543L48.076,10.344C48.076,8.919 48.273,7.906 48.675,7.306C49.075,6.709 49.774,6.409 50.771,6.409L56.466,6.409C57.416,6.409 57.888,5.977 57.888,5.109C57.888,4.241 57.414,3.772 56.466,3.772" style="fill:rgb(35,48,103);fill-rule:nonzero;"/>
        </g>
        <g transform="matrix(1,0,0,1,28.5196,7.08003)">
            <path d="M22.973,30.27L25.615,32.968C25.805,33.162 26.065,33.272 26.335,33.272L31.15,33.272C31.712,33.272 32.168,32.806 32.168,32.233L32.168,20.89L22.973,30.27Z" style="fill:rgb(35,48,103);fill-rule:nonzero;"/>
        </g>
        <g transform="matrix(1,0,0,1,28.5196,7.08003)">
            <path d="M28.761,10.906L16.375,23.541L9.856,16.891L22.242,4.255L21.013,3.001L18.804,0.747L31.152,0.747C31.714,0.747 32.17,1.212 32.17,1.785L32.17,14.381L30.116,12.27L28.763,10.906L28.761,10.906Z" style="fill:rgb(0,171,176);fill-rule:nonzero;"/>
        </g>
        <g transform="matrix(1,0,0,1,28.5196,7.08003)">
            <path d="M0.288,1.783L0.288,13.191L12.502,0.747L1.304,0.747C0.742,0.747 0.288,1.21 0.288,1.783Z" style="fill:rgb(35,48,103);fill-rule:nonzero;"/>
        </g>
        <g transform="matrix(1,0,0,1,28.5196,7.08003)">
            <path d="M1.306,33.272L13.589,33.272L0.286,19.7L0.286,32.232C0.286,32.807 0.742,33.272 1.306,33.272Z" style="fill:rgb(35,48,103);fill-rule:nonzero;"/>
        </g>
    </g>
</svg>
