<?xml version="1.0" encoding="UTF-8"?>
<svg id="JCW_symbol" xmlns="http://www.w3.org/2000/svg" viewBox="0 0 592.5 150">
  <defs>
    <style>
      .cls-1 {
        fill: #fff;
      }
    </style>
  </defs>
  <path class="cls-1" d="M511.64,99.6c-.93,0-1.68.13-2.24.39-.57.26-1.02.68-1.35,1.26-.44.77-.66,1.78-.66,3.02,0,1.09.22,2.03.66,2.83.5.9,1.38,1.57,2.62,2.02s2.95.72,5.13.82c2.82.11,6.02.17,9.59.17,4.17,0,7.65-.1,10.42-.31,3.45-.27,5.97-.84,7.56-1.72,1.59-.88,2.85-2.39,3.78-4.54,1.06-2.46,1.59-5,1.59-7.63,0-2.38-.95-3.99-2.86-4.84-.71-.31-1.46-.54-2.26-.66-.8-.13-2.09-.22-3.89-.28-2.61-.09-4.21-.14-4.8-.14-3.04,0-6.08,0-9.12,0-1.45,0-2.52-.04-3.2-.13-.69-.09-1.21-.25-1.57-.48-.5-.31-.76-.81-.76-1.49,0-.93.28-1.69.85-2.27.57-.58,1.36-.93,2.36-1.04,1.83-.19,5.09-.28,9.78-.28,2.27,0,3.85.07,4.75.2.9.13,1.5.41,1.8.82.79,1.02,1.36,1.64,1.71,1.84.35.2,1.01.31,1.97.31.84,0,1.69,0,2.53,0,.88,0,1.58-.11,2.08-.32.5-.21.95-.59,1.32-1.15.5-.71.76-1.72.76-3.02,0-.96-.28-1.85-.84-2.68-.56-.83-1.29-1.42-2.18-1.78-1.17-.46-2.65-.76-4.45-.9-1.8-.14-5.09-.21-9.86-.21-4.47,0-7.88.11-10.22.32-2.34.21-4.24.59-5.71,1.12-2.38.88-4.1,2.54-5.15,4.96-1.1,2.54-1.66,5.14-1.66,7.82,0,2.49,1.21,4.13,3.64,4.91,1.46.47,4.36.71,8.67.71,2.96,0,5.92,0,8.88,0,2.24,0,3.69.02,4.36.06.67.04,1.23.15,1.69.32.79.28,1.18.91,1.18,1.87,0,.55-.12,1.11-.36,1.68-.44,1.01-1.7,1.63-3.78,1.87-1.4.16-4.54.24-9.4.24-2.05,0-3.69-.06-4.91-.19-.83-.08-1.4-.21-1.69-.39-.29-.18-.58-.58-.86-1.19-.35-.74-.75-1.24-1.2-1.5-.46-.26-1.17-.39-2.13-.39h-2.58Z"/>
  <path class="cls-1" d="M494.54,80.6c-3.98,3.02-7.96,6.03-11.94,9.05-2.63,0-5.35,0-8.18,0,.58-2.68,1.15-5.35,1.73-8.03.09-.49.14-.94.14-1.37,0-.58-.2-1.11-.59-1.58-.57-.69-1.45-1.04-2.65-1.04h-2.46c-2.43-.16-3.82.98-4.18,3.4-1.76,8.28-3.52,16.57-5.28,24.85-.11.49-.17.94-.17,1.37,0,.58.2,1.11.59,1.58.57.69,1.46,1.04,2.67,1.04.81,0,1.62,0,2.43,0,2.44.16,3.84-.98,4.18-3.4.64-2.99,1.28-5.98,1.92-8.98,2.75,0,5.4,0,7.95,0,3.05,3.16,6.11,6.32,9.16,9.47.83.88,1.41,1.45,1.72,1.7.31.25.74.49,1.28.71.54.22,1.01.36,1.42.41.41.06,1.21.08,2.41.08,1.99,0,3.99,0,5.98,0,1.29,0,1.94-.53,1.94-1.58,0-.44-.24-.9-.73-1.37-4.61-4.46-9.21-8.91-13.82-13.37,6.16-4.47,12.32-8.95,18.49-13.42.5-.36.76-.76.76-1.2,0-.87-.52-1.3-1.56-1.3-1.68,0-3.36,0-5.03,0-1.8,0-3.15.15-4.06.45-.66.22-1.19.45-1.58.7-.39.24-1.24.85-2.53,1.83Z"/>
  <path class="cls-1" d="M455.64,78.06c-1.48-.28-3.56-.43-6.24-.43-10.46,0-19.76,0-27.89,0-2.44-.16-3.84.98-4.21,3.4-1.76,8.28-3.52,16.57-5.28,24.85-.11.49-.17.94-.17,1.37,0,.58.2,1.11.59,1.58.57.69,1.45,1.04,2.65,1.04h2.41c2.43.16,3.81-.98,4.16-3.4.34-1.58.68-3.17,1.02-4.75,5.02,0,11.22,0,18.58,0,1.8,0,2.94.09,3.43.26.9.35,1.35,1.06,1.35,2.15,0,.47-.07,1.05-.21,1.72-.03.14-.06.28-.09.43-.06.28-.09.56-.09.83,0,.66.2,1.24.61,1.72.57.69,1.46,1.04,2.67,1.04h2.5c2.46.16,3.86-.98,4.21-3.4.12-.57.24-1.13.36-1.7.44-2.03.66-3.5.66-4.42,0-.74-.31-1.35-.92-1.84-.52-.41-1.63-.71-3.33-.9,1.47-.31,2.59-.7,3.38-1.17.79-.46,1.5-1.18,2.13-2.14.73-1.12,1.32-2.65,1.77-4.59.46-1.94.69-3.92.69-5.92,0-3.21-1.57-5.13-4.72-5.74ZM449.4,91.29c-.21.69-.54,1.22-1.02,1.58-.47.36-1.17.63-2.08.8-.55.11-1.58.17-3.07.17-7.46,0-13.74,0-18.86,0,.58-2.76,1.17-5.53,1.75-8.29,5.25,0,11.66,0,19.24,0,1.59,0,2.67.09,3.24.26.96.28,1.44.92,1.44,1.91,0,.99-.21,2.18-.64,3.57Z"/>
  <path class="cls-1" d="M409.67,80.27c-1.24-1.64-3.66-2.57-7.25-2.79-2.25-.14-6.37-.21-12.36-.21-4.65,0-8.18.12-10.59.35-5.1.52-8.62,2.45-10.54,5.79-1.06,1.83-1.97,4.49-2.75,7.98-1.22,5.53-1.82,9.16-1.83,10.89,0,3.2,1.04,5.31,3.12,6.33,1.32.66,3,1.09,5.02,1.28,2.02.19,5.8.28,11.33.28,4.91,0,8.49-.07,10.73-.21,2.63-.16,4.8-.6,6.51-1.32,1.71-.72,3.16-1.81,4.36-3.26.9-1.07,1.64-2.38,2.23-3.92.59-1.54,1.19-3.68,1.79-6.4,1.07-4.99,1.61-8.28,1.61-9.85,0-2.08-.46-3.72-1.39-4.94ZM399.81,94.49c-.57,2.49-1.15,4.21-1.74,5.17-.59.96-1.49,1.63-2.68,2.01-1.31.43-4.51.64-9.59.64-1.06,0-2.13-.02-3.19-.02-3.06,0-5.1-.24-6.14-.72-1.04-.48-1.56-1.42-1.56-2.82,0-1.53.4-3.87,1.19-7.04.55-2.2,1.15-3.71,1.8-4.52.65-.81,1.68-1.36,3.1-1.64,1.32-.27,4.24-.4,8.74-.4,3.45,0,5.84.06,7.16.19,1.32.13,2.3.39,2.93.78.65.41.97,1.2.97,2.36,0,1.17-.32,3.17-.97,6.02Z"/>
  <path class="cls-1" d="M587.77,40.56c-1.48-.28-3.56-.43-6.24-.43-10.46,0-19.76,0-27.89,0-2.44-.16-3.84.98-4.21,3.4-1.76,8.28-3.52,16.57-5.28,24.85-.11.49-.17.95-.17,1.37,0,.58.2,1.11.59,1.58.57.69,1.45,1.04,2.65,1.04.8,0,1.61,0,2.41,0,2.43.16,3.81-.98,4.16-3.4.34-1.58.68-3.17,1.02-4.75,5.02,0,11.22,0,18.58,0,1.8,0,2.94.09,3.43.26.9.35,1.35,1.06,1.35,2.15,0,.47-.07,1.05-.21,1.72-.03.14-.06.28-.09.43-.06.28-.09.56-.09.83,0,.66.2,1.24.61,1.72.57.69,1.46,1.04,2.67,1.04h2.5c2.46.16,3.86-.98,4.21-3.4.12-.57.24-1.13.36-1.7.44-2.03.66-3.5.66-4.42,0-.74-.31-1.35-.92-1.84-.52-.41-1.63-.71-3.33-.9,1.47-.31,2.59-.7,3.38-1.17.79-.46,1.5-1.18,2.13-2.14.73-1.12,1.32-2.65,1.77-4.59.46-1.95.69-3.92.69-5.92,0-3.21-1.57-5.13-4.72-5.74ZM581.53,53.79c-.21.69-.54,1.22-1.02,1.58-.47.36-1.17.63-2.08.8-.55.11-1.58.17-3.07.17-7.46,0-13.74,0-18.86,0,.58-2.76,1.17-5.53,1.75-8.29,5.25,0,11.66,0,19.24,0,1.59,0,2.67.09,3.24.26.96.28,1.44.92,1.44,1.91,0,.99-.21,2.18-.64,3.57Z"/>
  <path class="cls-1" d="M533.15,52.96c-8.97,0-16.91,0-23.83,0,.39-1.83.79-3.67,1.18-5.5,7.53,0,17.34,0,29.42,0,2.32.16,3.69-.84,4.11-3,.06-.28.13-.57.19-.85.05-.25.07-.48.07-.69,0-.66-.2-1.24-.61-1.75-.57-.69-1.5-1.04-2.81-1.04-13.95,0-25.63,0-35.02,0-2.44-.16-3.84.98-4.21,3.4-1.76,8.28-3.52,16.57-5.28,24.85-.11.49-.17.94-.17,1.37,0,.6.2,1.13.59,1.58.33.39.7.67,1.1.82s.96.22,1.69.22c9.51,0,21.31,0,35.38,0,2.32.16,3.69-.84,4.11-3,.06-.28.13-.57.19-.85.05-.25.07-.48.07-.68,0-.66-.2-1.24-.61-1.75-.57-.69-1.5-1.04-2.81-1.04-12,0-21.72,0-29.16,0,.41-1.91.82-3.81,1.23-5.72,7.04,0,15.11,0,24.21,0,1.21,0,2.14-.22,2.79-.67s1.08-1.17,1.3-2.16l.07-.35c.03-.17.05-.36.05-.57,0-.61-.2-1.17-.59-1.65-.52-.65-1.4-.97-2.65-.97Z"/>
  <path class="cls-1" d="M495.49,6.05c-1.43,7.04-2.86,14.08-4.29,21.12-4.19-7.19-8.39-14.38-12.58-21.57-.47-.8-.83-1.34-1.06-1.62-.24-.28-.57-.54-1.02-.79-.43-.25-.82-.41-1.18-.47-.36-.06-1.01-.09-1.94-.09-2.9,0-5.8,0-8.7,0-2.44-.16-3.84.98-4.21,3.4-1.76,8.28-3.52,16.57-5.28,24.85-.11.49-.17.94-.17,1.37,0,.58.2,1.11.59,1.58.57.69,1.43,1.04,2.6,1.04.72,0,1.43,0,2.15,0,2.41.14,3.78-1,4.11-3.43,1.41-6.95,2.81-13.91,4.22-20.86,4.12,7.1,8.25,14.21,12.37,21.31.46.79.81,1.32,1.05,1.61.24.28.58.55,1,.8.43.24.82.39,1.19.46.37.07,1.01.11,1.93.11,2.95,0,5.89,0,8.84,0,2.44.16,3.84-.98,4.21-3.4,1.76-8.28,3.52-16.57,5.28-24.85.11-.5.17-.96.17-1.37,0-.58-.2-1.11-.59-1.58-.57-.69-1.43-1.04-2.58-1.04-.69,0-1.37,0-2.06,0-2.36-.08-3.72,1.06-4.07,3.43Z"/>
  <path class="cls-1" d="M488.67,40.27c-.91-.09-2.74-.14-5.48-.14-10.55,0-19.36,0-26.43,0-2.44-.16-3.84.98-4.21,3.4-1.76,8.29-3.52,16.58-5.28,24.88-.11.47-.17.92-.17,1.35,0,.58.2,1.11.59,1.58.57.69,1.45,1.04,2.65,1.04h2.41c2.43.16,3.81-.98,4.16-3.4.32-1.51.65-3.02.97-4.54,5.26,0,12.26,0,21,0,2.98,0,5.2-.13,6.68-.38,1.47-.25,2.74-.72,3.79-1.42,1.92-1.24,3.33-3.11,4.21-5.6.62-1.73,1.12-3.57,1.52-5.5.39-1.94.59-3.55.59-4.84,0-3.83-2.33-5.97-6.99-6.43ZM484.64,53.79c-.2.69-.54,1.22-1.02,1.58-.47.36-1.17.63-2.08.8-.55.11-1.58.17-3.07.17-7.46,0-13.74,0-18.86,0,.58-2.76,1.17-5.53,1.75-8.29,5.25,0,11.66,0,19.24,0,1.59,0,2.67.09,3.24.26.96.28,1.44.92,1.44,1.91,0,.99-.21,2.18-.64,3.57Z"/>
  <path class="cls-1" d="M444.91,42.8c-1.24-1.64-3.66-2.57-7.25-2.79-2.25-.14-6.37-.21-12.36-.21-4.65,0-8.18.12-10.59.35-5.1.52-8.62,2.45-10.54,5.79-1.06,1.83-1.97,4.49-2.75,7.98-1.22,5.53-1.82,9.16-1.83,10.89,0,3.2,1.04,5.31,3.12,6.33,1.32.66,3,1.09,5.02,1.28,2.02.19,5.8.28,11.33.28,4.91,0,8.49-.07,10.73-.21,2.63-.16,4.8-.6,6.51-1.32,1.71-.72,3.16-1.81,4.36-3.26.9-1.07,1.64-2.38,2.24-3.92.59-1.54,1.19-3.68,1.79-6.4,1.07-4.99,1.61-8.28,1.61-9.85,0-2.08-.46-3.72-1.39-4.94ZM435.05,57.02c-.57,2.49-1.15,4.21-1.74,5.17-.59.96-1.49,1.63-2.68,2.01-1.31.43-4.51.64-9.59.64-1.06,0-2.13-.02-3.19-.02-3.06,0-5.1-.24-6.14-.72-1.04-.48-1.56-1.42-1.56-2.82,0-1.53.4-3.87,1.19-7.04.55-2.2,1.15-3.71,1.8-4.52.65-.81,1.68-1.36,3.1-1.64,1.32-.27,4.24-.4,8.74-.4,3.45,0,5.84.06,7.16.19,1.32.13,2.3.39,2.93.78.65.41.97,1.2.97,2.36,0,1.17-.32,3.17-.97,6.02Z"/>
  <path class="cls-1" d="M445.82,6.03c-.61,2.83-1.22,5.67-1.82,8.5-8.81,0-16.94,0-24.37,0,.57-2.65,1.14-5.29,1.71-7.94.09-.47.14-.92.14-1.35,0-.58-.2-1.11-.59-1.58-.57-.69-1.45-1.04-2.65-1.04-.82,0-1.64,0-2.46,0-2.43-.16-3.82.98-4.18,3.4-1.76,8.28-3.52,16.57-5.28,24.85-.11.49-.17.94-.17,1.37,0,.58.2,1.11.59,1.58.57.69,1.46,1.04,2.67,1.04.81,0,1.62,0,2.43,0,2.44.16,3.84-.98,4.18-3.4.63-2.99,1.26-5.98,1.9-8.98,7.44,0,15.56,0,24.37,0-.59,2.8-1.18,5.59-1.78,8.39-.11.5-.17.96-.17,1.37,0,.58.2,1.11.59,1.58.57.69,1.46,1.04,2.67,1.04.81,0,1.62,0,2.43,0,2.44.16,3.84-.98,4.18-3.4,1.77-8.29,3.54-16.58,5.31-24.88.09-.44.14-.89.14-1.35,0-.58-.2-1.11-.59-1.58-.57-.69-1.45-1.04-2.65-1.04-.81,0-1.62,0-2.43,0-2.44-.16-3.84.98-4.18,3.4Z"/>
  <path class="cls-1" d="M403.96,5.3c-1.24-1.64-3.66-2.57-7.25-2.79-2.25-.14-6.37-.21-12.36-.21-4.65,0-8.18.12-10.59.35-5.1.52-8.62,2.45-10.54,5.79-1.06,1.83-1.97,4.49-2.75,7.98-1.22,5.53-1.82,9.16-1.83,10.89,0,3.2,1.04,5.31,3.12,6.33,1.32.66,3,1.09,5.02,1.28,2.02.19,5.8.28,11.33.28,4.91,0,8.49-.07,10.73-.21,2.63-.16,4.8-.6,6.51-1.32,1.71-.72,3.16-1.81,4.36-3.26.9-1.07,1.64-2.38,2.24-3.92.59-1.54,1.19-3.68,1.79-6.4,1.07-4.99,1.61-8.28,1.61-9.85,0-2.08-.46-3.72-1.39-4.94ZM394.1,19.52c-.57,2.49-1.15,4.21-1.74,5.17-.59.96-1.49,1.63-2.68,2.01-1.31.43-4.51.64-9.59.64-1.06,0-2.13-.02-3.19-.02-3.06,0-5.1-.24-6.14-.72-1.04-.48-1.56-1.42-1.56-2.82,0-1.53.4-3.87,1.19-7.04.55-2.21,1.15-3.71,1.8-4.52.65-.81,1.68-1.36,3.1-1.64,1.32-.27,4.24-.4,8.74-.4,3.45,0,5.84.06,7.16.19s2.3.39,2.93.78c.65.41.97,1.2.97,2.36,0,1.17-.32,3.17-.97,6.02Z"/>
  <path class="cls-1" d="M395.99,42.8c-1.24-1.64-3.66-2.57-7.25-2.79-2.25-.14-6.37-.21-12.36-.21-4.65,0-8.18.12-10.59.35-5.1.52-8.62,2.45-10.54,5.79-1.06,1.83-1.97,4.49-2.75,7.98-1.22,5.53-1.82,9.16-1.83,10.89,0,3.2,1.04,5.31,3.12,6.33,1.32.66,3,1.09,5.02,1.28,2.02.19,5.8.28,11.33.28,4.91,0,8.49-.07,10.73-.21,2.63-.16,4.8-.6,6.51-1.32,1.71-.72,3.16-1.81,4.36-3.26.9-1.07,1.64-2.38,2.23-3.92.59-1.54,1.19-3.68,1.79-6.4,1.07-4.99,1.61-8.28,1.61-9.85,0-2.08-.46-3.72-1.39-4.94ZM386.13,57.02c-.57,2.49-1.15,4.21-1.74,5.17-.59.96-1.49,1.63-2.68,2.01-1.31.42-4.51.64-9.59.64-1.06,0-2.13-.02-3.19-.02-3.06,0-5.1-.24-6.14-.72-1.04-.48-1.56-1.42-1.56-2.82,0-1.53.4-3.87,1.19-7.04.55-2.2,1.15-3.71,1.8-4.52.65-.81,1.68-1.36,3.1-1.64,1.32-.27,4.24-.4,8.74-.4,3.45,0,5.84.06,7.16.19,1.32.13,2.3.39,2.93.78.65.41.97,1.2.97,2.36,0,1.17-.32,3.17-.97,6.02Z"/>
  <path class="cls-1" d="M326.21,80.62c-3.97,7.19-7.95,14.38-11.92,21.57-1.18-7.02-2.36-14.05-3.53-21.07-.14-.79-.29-1.36-.45-1.71-.16-.35-.42-.69-.8-1-.38-.31-.76-.52-1.13-.63-.38-.1-.96-.15-1.75-.15-.83,0-1.65,0-2.48,0-1.02,0-1.84.24-2.43.72-.6.48-.9,1.13-.9,1.95,0,.43.05.87.14,1.32,1.57,8.27,3.14,16.54,4.71,24.8.3,2.47,1.69,3.62,4.18,3.45,2.04,0,4.08,0,6.12,0,.9,0,1.53-.04,1.89-.11.36-.07.76-.23,1.18-.48s.75-.52.98-.82c.23-.29.56-.82.98-1.59,3.62-6.73,7.24-13.47,10.86-20.2.62,6.51,1.24,13.02,1.86,19.54.08.79.19,1.37.34,1.75.15.38.41.73.77,1.06.38.35.76.57,1.15.69.39.11.98.17,1.78.17,1.99,0,3.99,0,5.98,0,.95,0,1.6-.03,1.97-.09.37-.06.78-.22,1.22-.47.44-.24.78-.49,1.03-.77.24-.28.62-.82,1.12-1.62,5.38-8.58,10.77-17.15,16.15-25.73.38-.6.57-1.1.57-1.51,0-.63-.22-1.13-.67-1.5-.45-.37-1.05-.56-1.81-.56h-2.53c-1.32,0-2.32.19-3,.57-.43.25-.76.52-1.02.79-.25.28-.61.81-1.09,1.59-4.37,7.21-8.73,14.41-13.1,21.62-.81-6.98-1.62-13.97-2.42-20.95-.09-.8-.22-1.38-.37-1.74-.15-.35-.41-.7-.79-1.05-.38-.33-.76-.55-1.13-.66-.38-.11-.97-.17-1.77-.17-1.6,0-3.2,0-4.8,0-.9,0-1.53.04-1.89.11-.36.07-.76.23-1.18.48s-.76.52-.99.79-.58.82-1.02,1.62Z"/>
  <path class="cls-1" d="M316.79,21.07c-.83,0-1.46.07-1.88.21-.42.14-.82.42-1.22.83-.44.46-.82,1.33-1.12,2.61-.31,1.28-.46,2.63-.46,4.05,0,1.21.35,2.3,1.04,3.26,1.12,1.53,3.19,2.46,6.21,2.79,1.15.13,3.71.19,7.68.19,8.33,0,12.97-.04,13.93-.12,3.48-.27,6.2-1.14,8.15-2.62,2.05-1.56,3.49-3.73,4.33-6.52.36-1.18.88-3.39,1.56-6.61.9-4.22,1.8-8.44,2.7-12.66.11-.5.17-.95.17-1.35,0-.58-.2-1.11-.59-1.58-.57-.69-1.46-1.04-2.67-1.04h-2.43c-2.43-.16-3.82.98-4.18,3.4-1.08,5.06-2.16,10.11-3.25,15.17-.43,2-.78,3.31-1.05,3.92-.28.61-.73,1.1-1.36,1.46-1.02.6-5.59.9-13.7.9-2.32,0-4-.17-5.06-.5-.96-.31-1.44-1-1.44-2.06,0-.11,0-.29.02-.54.02-.19.02-.32.02-.4,0-.72-.24-1.35-.73-1.89-.55-.6-1.39-.9-2.5-.9-.72,0-1.45,0-2.17,0Z"/>
  <path class="cls-1" d="M183.95,43.8c4.28-4.05,9.96-6.3,15.85-6.3h94.11c2.66-12.5,5.31-25,7.97-37.5h-62.4c-5.89,0-11.56,2.26-15.85,6.3-4.1,3.87-8.19,7.74-12.29,11.62-3.59,3.39-7.17,6.78-10.76,10.17-1.1,1.04-2.19,2.07-3.29,3.11-4.28,4.05-9.95,6.3-15.85,6.3H23.91c-2.66,12.5-5.31,25-7.97,37.5h125.82c5.89,0,11.57-2.26,15.85-6.3,8.78-8.3,17.56-16.59,26.34-24.89Z"/>
  <path class="cls-1" d="M104.59,118.8c4.28-4.05,9.96-6.3,15.85-6.3h157.53c2.66-12.5,5.31-25,7.97-37.5h-125.82c-5.89,0-11.56,2.26-15.85,6.3-4.1,3.87-8.19,7.74-12.29,11.62-3.59,3.39-7.17,6.78-10.76,10.17-1.1,1.04-2.19,2.07-3.29,3.11-4.28,4.05-9.95,6.3-15.85,6.3H7.97c-2.66,12.5-5.31,25-7.97,37.5h62.4c5.89,0,11.57-2.26,15.85-6.3,8.78-8.3,17.56-16.59,26.34-24.89Z"/>
  <path class="cls-1" d="M315.75,55.58c.48-2.33,1.05-4.76,2.28-6.13,1.23-1.37,3.13-1.67,6.35-1.84,3.22-.17,7.78-.2,10.41,0,2.63.2,3.33.63,3.92,1.19.58.56,1.04,1.26,1.48,1.74.43.48.84.73,1.82.84.98.12,2.53.1,3.53,0,1-.1,1.46-.29,1.95-.68.49-.39,1.01-.98,1.31-2.04.3-1.06.37-2.58.02-3.94-.35-1.37-1.13-2.58-2.55-3.35-1.42-.77-3.48-1.11-7.35-1.31-3.88-.2-9.57-.27-14.01-.13s-7.63.47-10.13,1.41c-2.5.94-4.31,2.49-5.65,4.82-1.34,2.33-2.21,5.43-2.93,8.63-.71,3.2-1.27,6.49-1.37,8.95-.1,2.45.24,4.06,1.07,5.4.83,1.34,2.14,2.41,5.04,2.95,2.9.54,7.38.54,10.9.54,3.52,0,6.07-.01,8.9-.11,2.83-.1,5.94-.28,8.23-.98,2.29-.71,3.77-1.94,4.83-3.53,1.06-1.59,1.71-3.54,1.78-4.81.06-1.27-.46-1.86-.97-2.25s-1-.59-1.83-.69c-.83-.1-1.99-.1-2.88-.04-.89.05-1.52.16-2.08.45-.56.29-1.05.75-1.4,1.26-.35.52-.54,1.09-1.08,1.55-.54.46-1.41.81-2.31,1.02s-1.82.27-3.34.32c-1.52.05-3.63.07-5.65.04-2.03-.03-3.97-.12-5.24-.24-1.27-.11-1.88-.25-2.48-.63s-1.2-.99-1.3-2.41c-.1-1.42.29-3.64.77-5.97Z"/>
</svg>