<?xml version="1.0" encoding="UTF-8"?>
<svg id="Ebene_1" data-name="Ebene 1" xmlns="http://www.w3.org/2000/svg" viewBox="0 0 60.02 67.61">
  <defs>
    <style>
      .cls-1 {
        fill: #fff;
        fill-rule: evenodd;
        stroke-width: 0px;
      }
    </style>
  </defs>
  <path class="cls-1" d="M50.27,2.74C40.47-1.89,29.94.75,29.94.75c0,0-18.61,1.6-21.49,19.97l17.53-.87s.96-7.61,10.65-7.53c12.2-.94,5.95,12.39,5.95,12.39,0,0-23.98-1.16-33.36,6.99C-2.72,42.19.36,55.05.36,55.05c3.89,13.49,18.75,12.54,18.75,12.54,12.18-.93,18.69-6.71,18.69-6.71l.88,4.29,15.2-.75s-1.34-6.43-.45-9.09c-.35-.44,6.12-35.91,6.12-35.91,0,0,3.66-11.64-9.28-16.67ZM17.03,50.22c-1.56-15.72,23.56-13.73,23.45-13.84.62,14.87-18.86,23.51-23.45,13.84Z"/>
</svg>