<?xml version="1.0" encoding="UTF-8"?>
<svg id="Bewusst_RGB_" data-name="Bewusst (RGB)" xmlns="http://www.w3.org/2000/svg" viewBox="0 0 335 152.84">
  <defs>
    <style>
      .cls-1 {
        fill: #bbd039;
      }

      .cls-1, .cls-2 {
        fill-rule: evenodd;
      }

      .cls-1, .cls-2, .cls-3 {
        stroke-width: 0px;
      }

      .cls-2, .cls-3 {
        fill: #fff;
      }
    </style>
  </defs>
  <path class="cls-2" d="m74.88,152.84c-2.47,0-4.96-.55-7.4-1.63l-.31-.14-57.67-28.07c-4.17-1.73-7.22-4.94-8.64-9.09-2.24-6.59-.2-14.63,6.42-25.31C41.54,33.12,101.35,0,167.26,0s125.72,33.12,159.98,88.61c5.33,8.61,9.84,17.7,6.73,25.8-1.62,4.22-5.02,7.35-9.62,8.85-12.74,5.22-25.38,11.72-37.62,18.01-6.32,3.25-12.85,6.61-19.39,9.79l-.18.08c-2.28,1.06-4.7,1.59-7.19,1.59-6.96,0-13.34-4.14-17.55-11.37-16.11-25.99-44.2-41.5-75.17-41.5s-59.15,15.56-75.25,41.62c-4.68,7.54-10.45,11.35-17.14,11.35Z"/>
  <path class="cls-1" d="m15.79,93.86c69.04-111.81,233.9-111.81,302.95,0,5.47,8.83,9.73,17.8,2.23,19.98-19.91,8.11-38.66,18.82-57.99,28.23-3.86,1.79-8.58.05-11.96-5.83-38.18-61.83-129.34-61.83-167.51,0-2.96,4.77-6.64,8.2-11.96,5.83-19.33-9.41-38.66-18.82-57.99-28.23-6.4-2.41-3.24-11.16,2.23-19.98Z"/>
  <g>
    <path class="cls-3" d="m36.59,97.52c-.46-.38-.57-1.1-.15-1.61l8.93-10.76c4.52-5.45,11.98-6.82,16.83-2.8,3.56,2.95,3.5,8.28,2.85,11.41,3.05-1.6,8.41-3.47,12.66.06,5.17,4.29,5.12,11.97.56,17.46l-9.5,11.45c-.42.51-1.14.53-1.6.15l-30.57-25.36Zm21.2-.65c1.46-1.75,1.2-4.46-.64-5.99-1.85-1.53-4.37-1.13-5.82.63l-2.99,3.6,6.46,5.36,2.99-3.6Zm13.1,9.86c1.49-1.8,1.28-4.55-.61-6.12-1.85-1.53-4.88-.7-6.37,1.1l-3.1,3.74,6.6,5.48,3.49-4.2Z"/>
    <path class="cls-3" d="m66.58,65.26c-.34-.49-.26-1.21.28-1.59l20.37-14.21c.54-.38,1.24-.21,1.59.28l3.74,5.36c.34.49.26,1.21-.28,1.59l-13.63,9.51,4.26,6.1,11.22-7.83c.49-.34,1.24-.21,1.59.28l3.74,5.36c.38.54.21,1.24-.28,1.59l-11.22,7.83,4.64,6.64,13.63-9.51c.54-.38,1.24-.21,1.59.28l3.74,5.36c.34.49.26,1.21-.28,1.59l-20.37,14.21c-.54.38-1.24.21-1.59-.28l-22.73-32.57Z"/>
    <path class="cls-3" d="m100.96,42.32c-.45-.75-.15-1.45.66-1.67l6.77-1.86c.46-.13,1.04.15,1.26.52l10.38,18.24.23-.06,3.36-22.83c.08-.39.35-.78.81-.91l1.04-.29c.52-.14.95.05,1.16.37l14.57,17.89.23-.06-.43-20.98c0-.44.36-.97.82-1.1l6.77-1.86c.81-.22,1.43.23,1.42,1.1l-.23,41.88c.01.49-.36.97-.82,1.1l-.93.25c-.4.11-.89-.07-1.16-.37l-17.1-20.74-.17.05-4.01,26.56c-.08.4-.4.8-.81.91l-.93.25c-.46.13-1.02-.09-1.26-.52l-21.64-35.86Z"/>
    <path class="cls-3" d="m166.97,28.71c.06-.6.66-1.08,1.25-1.01l7.34.78c.66.07,1.08.66,1.01,1.25l-2.56,24.16c-.44,4.18,2.3,7.85,6.54,8.3,4.3.46,7.81-2.55,8.26-6.73l2.56-24.16c.06-.6.6-1.08,1.25-1.01l7.34.78c.6.06,1.08.66,1.01,1.25l-2.62,24.64c-.96,9.07-9.4,15.78-18.82,14.77-9.37-.99-16.15-9.32-15.18-18.38l2.62-24.64Z"/>
    <path class="cls-3" d="m202.22,69.08l4.53-3.5c.75-.53,1.75.02,2.02.46.17.2,2.92,4.81,6.57,6.35,2.21.93,4.4.22,5.21-1.71.98-2.32-.21-4.91-3.34-7.98-3.96-3.88-8.38-10.1-5.58-16.74,2.31-5.47,8.89-9.21,17.41-5.62,5.75,2.42,8.94,7.21,10.09,9.13.5.67-.03,1.62-.41,1.91l-4.61,3.07c-.64.45-1.85.52-2.18-.07-.38-.49-3.14-5.23-6.51-6.65-1.99-.84-4.04-.14-4.67,1.35-.86,2.05.15,4.29,3.77,7.9,3.59,3.53,9.03,9.79,5.86,17.31-2.4,5.7-9.74,9.37-17.87,5.95-7.19-3.03-9.91-7.69-10.65-9.5-.32-.79-.39-1.08.38-1.67Z"/>
    <path class="cls-3" d="m230.58,81.53l5.25-2.27c.85-.33,1.69.45,1.84.94.12.24,1.65,5.38,4.8,7.77,1.91,1.45,4.21,1.3,5.47-.37,1.52-2.01,1-4.81-1.27-8.56-2.88-4.74-5.63-11.85-1.28-17.6,3.58-4.74,10.89-6.74,18.26-1.16,4.98,3.76,6.89,9.2,7.53,11.33.32.77-.43,1.56-.87,1.75l-5.23,1.84c-.73.27-1.92.05-2.1-.61-.25-.56-1.75-5.84-4.67-8.05-1.72-1.3-3.88-1.13-4.86.16-1.34,1.77-.92,4.2,1.71,8.59,2.61,4.31,6.34,11.71,1.41,18.22-3.73,4.93-11.75,6.68-18.79,1.36-6.22-4.71-7.71-9.89-7.98-11.83-.12-.84-.12-1.14.77-1.52Z"/>
    <path class="cls-3" d="m281.13,89.27l-5.44-6.63c-.42-.51-.31-1.22.16-1.6l5.05-4.15c.46-.38,1.19-.35,1.6.16l16.9,20.59c.42.51.31,1.22-.16,1.6l-5.05,4.15c-.46.38-1.19.35-1.6-.16l-5.44-6.63-24.76,20.33c-.46.38-1.22.31-1.6-.16l-4.57-5.57c-.38-.46-.31-1.22.16-1.6l24.76-20.33Z"/>
  </g>
</svg>