<?xml version="1.0" encoding="UTF-8"?>
<svg id="ALDI_Logo" data-name="ALDI Logo" xmlns="http://www.w3.org/2000/svg" viewBox="0 0 157 164.26">
  <defs>
    <style>
      .cls-1 {
        fill: none;
      }

      .cls-1, .cls-2, .cls-3, .cls-4, .cls-5 {
        stroke-width: 0px;
      }

      .cls-2 {
        fill: #202b78;
      }

      .cls-3 {
        fill: #c51718;
      }

      .cls-4 {
        fill: #fff;
      }

      .cls-5 {
        fill: #00b6ed;
      }
    </style>
  </defs>
  <g id="Background">
    <rect id="White_Border" data-name="White Border" class="cls-4" width="157" height="164.26"/>
  </g>
  <g id="ALDI_Nord_Logo_2021" data-name="ALDI Nord Logo 2021">
    <g id="Logo">
      <rect id="Rechteck_1923" data-name="Rechteck 1923" class="cls-1" width="157" height="164.26"/>
      <path id="Pfad_1900" data-name="Pfad 1900" class="cls-3" d="m153.98,161.24V3.01H3.02v158.23h150.96Zm-6.04-6.03H9.06V9.04h138.89v146.17h0Z"/>
      <path id="Pfad_1901" data-name="Pfad 1901" class="cls-2" d="m16.61,116.04h123.79v31.65H16.61v-31.65Z"/>
      <path id="Pfad_1902" data-name="Pfad 1902" class="cls-4" d="m129.07,143.92v-24.11h-10.86v24.11h10.86Zm-13.3-12.05c.02-6.64-5.35-12.04-11.99-12.06h-16.04v24.11h16.05c6.64-.02,12.01-5.41,11.99-12.05h0Zm-9.97,0c.09,2.8-2.11,5.14-4.91,5.24h-2.32v-10.48h2.33c2.8.1,4.99,2.44,4.9,5.24h0Zm-40.66,12.05h20.51v-6.97h-9.48v-17.15h-11.03v24.11Zm-12.37,0h10.95l-12.37-24.11h-11.04l-12.37,24.11h10.95l1.16-2.54h11.56l1.17,2.54Zm-4.41-8.88h-5.07l2.47-5.35,2.6,5.35Z"/>
      <path id="Pfad_1903" data-name="Pfad 1903" class="cls-5" d="m120.43,113.02c1.69-3.01,2.55-6.42,2.48-9.87-.08-4.05-1.76-6.65-4.05-10.09l-33.54-50.27,5.46-8.22,37.33,55.73c3.07,4.58,4.83,8.01,4.95,13.12-.04,3.33-.8,6.61-2.23,9.61h-10.4ZM77.96,16.58L28.89,90.3c-3.07,4.58-4.83,8.01-4.95,13.12.04,3.33.8,6.61,2.23,9.61h10.41c-1.69-3.01-2.55-6.42-2.48-9.87.08-4.05,1.76-6.65,4.05-10.09L88.85,16.58h-10.89Zm-30.65,78.38h59.35l-4.05-6.07h-51.3l-2.37,3.55c-.54.81-1.1,1.68-1.62,2.52Z"/>
      <path id="Pfad_1904" data-name="Pfad 1904" class="cls-2" d="m132.38,113.02c.28-.59.41-.95.62-1.51,1.08-2.57,1.66-5.32,1.71-8.11-.13-5.36-1.99-8.95-5.1-13.57l-37.94-56.57,4.39-6.57,41.28,61.8c3.62,5.43,5.32,8.59,5.32,13.63,0,5.74-1.53,8.28-2.7,10.91h-7.58Zm-23.16,0h9.45c1.77-2.98,2.67-6.39,2.61-9.85-.07-3.77-1.61-6.19-3.91-9.63l-32.98-49.39-4.28,6.42,27.96,41.86c2.49,3.73,4.57,7.08,4.76,10.49.2,3.71-1.1,7.35-3.61,10.1h0ZM67.34,16.58L19.67,88.48c-3.62,5.43-5.32,8.59-5.33,13.63,0,5.74,1.53,8.27,2.7,10.91h7.62c-.2-.45-.42-.96-.63-1.53-1.02-2.58-1.54-5.33-1.54-8.1.13-5.36,1.99-8.95,5.1-13.57L76.34,16.58h-9Zm23.13,0l-51.03,76.96c-2.3,3.44-3.83,5.86-3.91,9.63-.06,3.46.84,6.88,2.61,9.85h9.65c-2.51-2.74-3.81-6.38-3.61-10.1.05-.9.2-1.8.44-2.67h64.94c-.43-1.38-1.1-2.68-1.97-3.84h-61.17c.71-1.23,1.63-2.69,2.5-3.99l3.35-5.01h49.34l-2.7-4.05h-43.94L99.25,16.57h-8.78Z"/>
    </g>
  </g>
</svg>