<?xml version="1.0" encoding="UTF-8"?>
<svg id="Layer_1" data-name="Layer 1" xmlns="http://www.w3.org/2000/svg" viewBox="0 0 472.89 145.36">
  <defs>
    <style>
      .cls-1 {
        fill: #00a1df;
      }

      .cls-1, .cls-2, .cls-3 {
        stroke-width: 0px;
      }

      .cls-2 {
        fill: #fffefe;
      }

      .cls-3 {
        fill: #ed1f25;
      }
    </style>
  </defs>
  <g id="CD9VLX">
    <g>
      <path class="cls-2" d="M236.45,145.35c-78.61,0-157.22,0-235.83.01-.51,0-.62-.11-.62-.62C.01,96.7.01,48.66,0,.62,0,.11.11,0,.62,0c157.22.01,314.44.01,471.65,0,.51,0,.62.11.62.62-.01,48.04-.01,96.08,0,144.12,0,.51-.11.62-.62.62-78.61-.01-157.22-.01-235.83-.01ZM434.06,10.39h-100.89c-107.32,0-214.64,0-321.97,0-.51,0-.83-.04-.83.69.02,41.07.02,82.14,0,123.22,0,.56.13.69.69.69,103.34-.01,206.69-.01,310.03,0,1.35,0,2.7-.09,4.02-.31,5.06-.85,9.44-3.13,13.29-6.46,4.32-3.74,7.62-8.28,10.26-13.3,6.05-11.48,9.31-23.73,9.78-36.71.07-1.86-.04-3.72-.3-5.57-.2-1.4-.54-2.75-1.14-4.06.97-.11,1.88-.22,2.79-.31,4.69-.5,9.28-1.45,13.8-2.79,13.13-3.89,24.54-10.78,34.58-20,9.48-8.69,17.18-18.78,23.36-30.04.89-1.62,1.75-3.26,2.51-5.03ZM334.57,134.97h.46c42.27,0,84.53,0,126.8.01.58,0,.69-.16.69-.71-.01-41.07-.01-82.14,0-123.21,0-.58-.17-.69-.71-.69-7.84.02-15.68.03-23.53-.01-.94,0-1.37.26-1.79,1.11-10.76,22.01-23.37,42.91-37.86,62.66-9.76,13.3-20.38,25.85-32.4,37.18-5.99,5.65-12.29,10.91-19.02,15.65-4.07,2.87-8.29,5.51-12.64,8Z"/>
      <path class="cls-3" d="M434.06,10.39c-.76,1.77-1.62,3.41-2.51,5.03-6.18,11.26-13.89,21.35-23.36,30.04-10.05,9.22-21.45,16.11-34.58,20-4.52,1.34-9.11,2.29-13.8,2.79-.91.1-1.82.2-2.79.31.6,1.31.95,2.66,1.14,4.06.26,1.85.37,3.71.3,5.57-.47,12.98-3.73,25.23-9.78,36.71-2.64,5.01-5.95,9.56-10.26,13.3-3.85,3.34-8.23,5.61-13.29,6.46-1.33.22-2.67.31-4.02.31-103.34,0-206.69,0-310.03,0-.56,0-.69-.14-.69-.69.01-41.07.02-82.14,0-123.22,0-.74.32-.69.83-.69,107.32,0,214.64,0,321.97,0h100.89ZM155.45,83.37c8.61,0,17.21,0,25.82,0,.48,0,.69-.11.82-.61.99-3.61,1.72-7.27,2.14-10.99.45-3.97.52-7.92-.31-11.86-1.42-6.75-4.92-12.1-10.8-15.79-5.55-3.48-11.75-4.88-18.18-5.26-4.85-.29-9.68.16-14.42,1.32-6.99,1.71-13.11,4.97-18.18,10.13-4.32,4.41-7.34,9.61-9.49,15.37-1.73,4.65-2.53,9.49-3.11,14.39-.54,4.65-.47,9.26.55,13.85,2.76,12.52,12.28,20.86,24.9,22.26,4.46.49,8.96.47,13.45-.07,4.25-.51,8.37-1.48,12.26-3.29,9.48-4.4,15.62-11.68,18.51-21.71.17-.58.08-.76-.57-.76-6.02.02-12.04.02-18.06,0-.44,0-.67.1-.84.54-1.37,3.66-3.89,6.3-7.49,7.74-5.6,2.24-11.26,2.1-16.83-.16-2.83-1.14-4.93-3.16-6.11-6.02-1.15-2.78-1.22-5.66-.7-8.59.1-.54.43-.51.82-.51,8.61,0,17.21,0,25.82,0ZM294.21,110.09c.24,1.53.48,2.97.67,4.41.06.46.18.64.69.64,5.53-.02,11.05-.02,16.58,0,.44,0,.57-.08.51-.56-.5-3.56-.71-7.11.08-10.69.81-3.71,1.54-7.45,2.38-11.15,2.13-9.35,4.27-18.7,6.42-28.04.56-2.42,1.26-4.8,1.16-7.33-.19-4.39-1.87-8.05-5.21-10.88-3.4-2.89-7.42-4.64-11.66-5.89-5.43-1.6-10.97-1.84-16.59-1.12-2.85.36-5.68.74-8.41,1.67-9.72,3.31-16.01,9.78-18.37,19.89-.09.4-.13.6.41.6,6.47-.02,12.94-.01,19.41,0,.37,0,.52-.1.63-.48,1-3.23,3.05-5.56,6.22-6.78,3.3-1.27,6.73-1.24,10.14-.55,3.16.65,4.75,2.75,4.82,5.97.05,2.47-.66,4.77-1.58,7.02-.57,1.38-.58,1.38-2.06,1.3-4.31-.23-8.61-.37-12.93-.16-4.71.23-9.39.69-13.99,1.77-3.54.84-7.03,1.91-9.99,4.09-7.66,5.65-12.12,13.14-12.77,22.77-.28,4.18.77,7.96,3.15,11.35,4.16,5.91,10.22,8.29,17.14,8.81,3.48.26,6.93-.33,10.33-1.12,4.57-1.06,8.86-2.77,12.83-5.52ZM193.38,90.37c-2.94,0-5.89.01-8.83-.01-.44,0-.63.15-.75.55-.92,3.01-1.31,6.08-.97,9.23.6,5.55,3.54,9.59,8.19,12.43,3.24,1.97,6.92,2.77,10.61,3.37,5.54.9,11.12,1.05,16.72.94,3.24-.06,6.44-.39,9.56-1.32,6.26-1.88,11.63-5.11,15.64-10.36,2.45-3.21,3.91-6.82,4.15-10.88.22-3.83-.72-7.4-2.42-10.82-1.9-3.83-4.49-7.01-8.36-9-1.23-.64-2.44-1.32-3.69-1.93-3.88-1.9-7.89-3.48-11.75-5.41-1.99-.99-3.91-2.08-5.6-3.55-2.83-2.47-1.89-6.5.36-8.24.9-.7,1.88-1.2,2.96-1.55,2.78-.89,5.65-.99,8.52-.76,2.06.17,4.07.61,5.89,1.68,2.45,1.43,3.74,3.55,3.64,6.42-.02.52.31.34.51.34,5.91,0,11.82,0,17.73.02.44,0,.56-.12.59-.56.15-1.89.07-3.77-.29-5.63-.87-4.6-3.11-8.3-7.14-10.82-5.46-3.42-11.51-4.93-17.85-5.5-3.05-.27-6.1-.24-9.16-.02-3.47.25-6.91.77-10.28,1.61-3.93.98-7.46,2.87-10.69,5.31-2.72,2.06-4.96,4.53-6.52,7.6-1.85,3.65-2.2,7.51-1.72,11.51.35,2.88,1.53,5.33,3.36,7.55,2.37,2.88,5.21,5.18,8.36,7.14,4.02,2.5,8.38,4.33,12.7,6.21,2.4,1.05,4.8,2.08,6.96,3.6,2.21,1.54,3.1,5.01,2.31,7.22-.77,2.16-2.45,3.33-4.49,4.01-3.92,1.3-7.94,1.51-11.95.61-5.35-1.2-7.83-5.02-6.91-10.33.1-.55-.09-.63-.58-.62-2.94.02-5.89.01-8.83.01ZM34.52,55.94c.19,0,.38,0,.57,0,9.08,0,18.16,0,27.23,0,.83,0,.82,0,.61.82-3.04,11.87-6.13,23.72-8.26,35.8-.72,4.09-.3,8.04,1.53,11.79,2.54,5.21,6.83,8.4,12.14,10.41,4.31,1.63,8.84,1.86,13.37,1.98,4.63.12,9.15-.64,13.57-2,4.8-1.48,9.29-3.61,13.42-6.46.39-.27.54-.5.42-1.03-.86-3.89-1.66-7.78-2.49-11.68-.2-.93-.41-1.85-.64-2.84-2.21,1.71-4.52,3.08-6.98,4.18-5.88,2.63-11.95,3.7-18.33,2.19-1.55-.37-3.09-.78-4.32-1.88-2.12-1.9-2.52-4.39-2.41-7.05.07-1.8.58-3.52,1.01-5.26,2.32-9.33,4.6-18.66,6.87-27.99.14-.59.38-.74.98-.74,9.03.02,18.07.01,27.1.03.43,0,.68-.1.9-.49,2.82-4.86,5.66-9.71,8.48-14.56.08-.14.25-.28.15-.51-.23,0-.48,0-.72,0-10.7,0-21.39,0-32.09,0-.47,0-.74-.01-.61-.63,1.05-4.87,2.06-9.76,3.12-14.63.14-.64-.03-.68-.57-.68-5.84.01-11.68.02-17.53,0-.52,0-.72.13-.84.65-1.17,4.84-2.38,9.68-3.55,14.52-.13.54-.35.65-.85.65-7.37-.02-14.74,0-22.11-.02-.45,0-.72.12-.95.53-2.67,4.79-5.37,9.56-8.05,14.34-.09.17-.26.32-.21.6ZM333.56,48.97c0,4.92,3.54,8.6,8.3,8.61,4.9,0,8.58-3.63,8.59-8.5,0-4.99-3.61-8.74-8.43-8.74-4.82,0-8.46,3.7-8.46,8.63Z"/>
      <path class="cls-1" d="M334.57,134.97c4.36-2.5,8.57-5.14,12.64-8,6.73-4.74,13.03-10,19.02-15.65,12.02-11.33,22.64-23.88,32.4-37.18,14.49-19.75,27.1-40.65,37.86-62.66.42-.85.85-1.12,1.79-1.11,7.84.05,15.68.03,23.53.01.54,0,.71.11.71.69-.01,41.07-.01,82.14,0,123.21,0,.55-.11.71-.69.71-42.27-.01-84.53-.01-126.8-.01h-.46Z"/>
      <path class="cls-2" d="M155.45,83.37c-8.61,0-17.21,0-25.82,0-.39,0-.73-.03-.82.51-.52,2.93-.45,5.81.7,8.59,1.18,2.86,3.28,4.88,6.11,6.02,5.57,2.25,11.23,2.39,16.83.16,3.6-1.44,6.12-4.07,7.49-7.74.17-.44.4-.54.84-.54,6.02.01,12.04.02,18.06,0,.66,0,.74.18.57.76-2.89,10.03-9.03,17.31-18.51,21.71-3.88,1.8-8.01,2.78-12.26,3.29-4.48.54-8.98.56-13.45.07-12.63-1.4-22.14-9.73-24.9-22.26-1.01-4.59-1.09-9.2-.55-13.85.57-4.9,1.37-9.74,3.11-14.39,2.15-5.76,5.16-10.97,9.49-15.37,5.06-5.16,11.19-8.42,18.18-10.13,4.74-1.16,9.57-1.61,14.42-1.32,6.44.38,12.63,1.78,18.18,5.26,5.88,3.69,9.37,9.04,10.8,15.79.83,3.93.76,7.89.31,11.86-.42,3.72-1.15,7.38-2.14,10.99-.14.5-.34.61-.82.61-8.61-.01-17.21,0-25.82,0ZM131.8,67.7c.22,0,.33,0,.44,0,10.67,0,21.33,0,32,0,.04,0,.09,0,.13,0,.34.04.5-.06.58-.45.13-.66.24-1.32.3-1.99.4-4.64-1.34-8.84-6.41-10.64-3.7-1.31-7.54-1.36-11.36-.77-6.23.96-10.82,4.37-13.94,9.79-.72,1.26-1.34,2.57-1.74,4.05Z"/>
      <path class="cls-2" d="M294.21,110.09c-3.96,2.75-8.26,4.46-12.83,5.52-3.4.79-6.85,1.38-10.33,1.12-6.92-.52-12.98-2.9-17.14-8.81-2.38-3.39-3.43-7.16-3.15-11.35.65-9.63,5.11-17.12,12.77-22.77,2.96-2.18,6.45-3.25,9.99-4.09,4.6-1.09,9.27-1.55,13.99-1.77,4.32-.21,8.62-.07,12.93.16,1.48.08,1.49.08,2.06-1.3.93-2.25,1.63-4.55,1.58-7.02-.06-3.22-1.66-5.32-4.82-5.97-3.4-.7-6.83-.72-10.14.55-3.17,1.22-5.22,3.55-6.22,6.78-.12.38-.26.49-.63.48-6.47,0-12.94-.01-19.41,0-.54,0-.5-.2-.41-.6,2.36-10.11,8.65-16.58,18.37-19.89,2.73-.93,5.56-1.31,8.41-1.67,5.61-.71,11.15-.47,16.59,1.12,4.23,1.25,8.26,3,11.66,5.89,3.33,2.83,5.02,6.49,5.21,10.88.11,2.54-.6,4.91-1.16,7.33-2.15,9.35-4.29,18.69-6.42,28.04-.84,3.71-1.57,7.44-2.38,11.15-.78,3.58-.57,7.13-.08,10.69.07.48-.07.56-.51.56-5.53-.01-11.05-.02-16.58,0-.51,0-.63-.18-.69-.64-.19-1.44-.43-2.88-.67-4.41ZM270.61,95.33c.07.47-.08.94.13,1.4.49,1.08,1.14,2.04,2.05,2.8,2.56,2.13,5.55,2.45,8.69,1.94,3.93-.64,7.34-2.41,10.3-5.03,4.11-3.65,6.57-8.16,6.91-13.72.07-1.05.07-1.04-1.24-1.12-3.91-.25-7.81-.19-11.69.4-2.93.44-5.79,1.18-8.42,2.6-4.28,2.3-6.63,5.82-6.73,10.74Z"/>
      <path class="cls-2" d="M193.38,90.37c2.94,0,5.89.01,8.83-.01.49,0,.67.07.58.62-.92,5.32,1.56,9.14,6.91,10.33,4.01.9,8.03.69,11.95-.61,2.05-.68,3.73-1.85,4.49-4.01.78-2.2-.11-5.67-2.31-7.22-2.16-1.51-4.56-2.55-6.96-3.6-4.32-1.89-8.68-3.71-12.7-6.21-3.15-1.96-5.98-4.26-8.36-7.14-1.83-2.22-3.02-4.67-3.36-7.55-.48-4-.13-7.86,1.72-11.51,1.56-3.07,3.8-5.54,6.52-7.6,3.23-2.44,6.76-4.33,10.69-5.31,3.37-.84,6.81-1.36,10.28-1.61,3.05-.22,6.11-.25,9.16.02,6.33.57,12.39,2.09,17.85,5.5,4.03,2.52,6.27,6.22,7.14,10.82.35,1.86.43,3.74.29,5.63-.03.43-.15.56-.59.56-5.91-.01-11.82,0-17.73-.02-.21,0-.53.19-.51-.34.09-2.87-1.19-4.98-3.64-6.42-1.82-1.06-3.83-1.51-5.89-1.68-2.88-.23-5.74-.14-8.52.76-1.07.34-2.06.85-2.96,1.55-2.25,1.74-3.19,5.78-.36,8.24,1.69,1.47,3.62,2.56,5.6,3.55,3.86,1.93,7.88,3.52,11.75,5.41,1.25.61,2.45,1.29,3.69,1.93,3.87,2,6.46,5.17,8.36,9,1.7,3.41,2.64,6.99,2.42,10.82-.24,4.05-1.7,7.67-4.15,10.88-4.02,5.25-9.39,8.48-15.64,10.36-3.12.94-6.32,1.26-9.56,1.32-5.6.11-11.18-.04-16.72-.94-3.7-.6-7.37-1.39-10.61-3.37-4.65-2.84-7.58-6.88-8.19-12.43-.34-3.15.05-6.21.97-9.23.12-.4.31-.55.75-.55,2.94.02,5.89.01,8.83.01Z"/>
      <path class="cls-2" d="M34.52,55.94c-.05-.28.11-.43.21-.6,2.68-4.78,5.38-9.56,8.05-14.34.23-.41.5-.53.95-.53,7.37.01,14.74,0,22.11.02.51,0,.72-.11.85-.65,1.16-4.84,2.38-9.68,3.55-14.52.13-.52.33-.65.84-.65,5.84.02,11.68.02,17.53,0,.54,0,.71.04.57.68-1.07,4.87-2.07,9.75-3.12,14.63-.13.61.14.63.61.63,10.7,0,21.39,0,32.09,0,.24,0,.49,0,.72,0,.1.24-.07.37-.15.51-2.83,4.85-5.67,9.7-8.48,14.56-.23.39-.48.49-.9.49-9.03-.01-18.07,0-27.1-.03-.6,0-.84.15-.98.74-2.27,9.34-4.56,18.67-6.87,27.99-.43,1.74-.94,3.46-1.01,5.26-.11,2.66.3,5.15,2.41,7.05,1.23,1.1,2.76,1.52,4.32,1.88,6.38,1.5,12.45.43,18.33-2.19,2.46-1.1,4.77-2.47,6.98-4.18.22.99.44,1.91.64,2.84.83,3.89,1.63,7.79,2.49,11.68.12.53-.03.76-.42,1.03-4.14,2.86-8.63,4.98-13.42,6.46-4.42,1.36-8.95,2.12-13.57,2-4.52-.12-9.05-.35-13.37-1.98-5.31-2-9.6-5.19-12.14-10.41-1.83-3.75-2.25-7.71-1.53-11.79,2.12-12.08,5.21-23.93,8.26-35.8.21-.82.22-.82-.61-.82-9.08,0-18.16,0-27.23,0-.19,0-.39,0-.57,0Z"/>
      <path class="cls-2" d="M333.56,48.97c0-4.93,3.64-8.63,8.46-8.63,4.82,0,8.44,3.75,8.43,8.74,0,4.86-3.69,8.5-8.59,8.5-4.76,0-8.31-3.68-8.3-8.61ZM348.6,48.97c-.01-.61-.02-1.21-.17-1.8-.68-2.71-2.28-4.53-5.05-5.17-2.51-.59-5.2.46-6.68,2.6-1.18,1.7-1.45,3.61-1.22,5.64.45,4.01,4.29,6.68,8.18,5.66,3.06-.8,4.95-3.45,4.95-6.92Z"/>
      <path class="cls-3" d="M131.8,67.7c.4-1.48,1.02-2.79,1.74-4.05,3.12-5.43,7.71-8.84,13.94-9.79,3.82-.59,7.66-.54,11.36.77,5.07,1.79,6.82,6,6.41,10.64-.06.67-.17,1.33-.3,1.99-.08.39-.24.49-.58.45-.04,0-.09,0-.13,0-10.67,0-21.33,0-32,0-.11,0-.22,0-.44,0Z"/>
      <path class="cls-3" d="M270.61,95.33c.1-4.92,2.45-8.45,6.73-10.74,2.63-1.41,5.48-2.15,8.42-2.6,3.88-.59,7.78-.65,11.69-.4,1.31.08,1.31.07,1.24,1.12-.35,5.56-2.8,10.07-6.91,13.72-2.96,2.62-6.37,4.4-10.3,5.03-3.14.51-6.13.19-8.69-1.94-.91-.76-1.56-1.72-2.05-2.8-.21-.46-.06-.93-.13-1.4Z"/>
      <path class="cls-3" d="M348.6,48.97c0,3.47-1.89,6.12-4.95,6.92-3.89,1.02-7.72-1.65-8.18-5.66-.23-2.04.05-3.94,1.22-5.64,1.48-2.14,4.17-3.19,6.68-2.6,2.77.65,4.37,2.47,5.05,5.17.15.59.16,1.2.17,1.8ZM345.92,53.92c0-.32-.21-.5-.33-.7-.64-1.02-1.29-2.04-1.95-3.06-.18-.28-.32-.45.19-.55,1.38-.28,2.05-1.19,2.02-2.59-.03-1.39-.77-2.27-2.14-2.52-1.47-.27-2.96-.06-4.43-.14-.43-.02-.57.1-.56.55.02,2.81.02,5.61,0,8.42,0,.47.12.67.6.59.09-.01.18-.01.27,0,.56.09.8-.07.75-.71-.06-.96-.02-1.93-.01-2.89,0-.17-.07-.37.13-.49.36-.21,1.38.06,1.6.43.65,1.07,1.29,2.15,1.94,3.22.12.19.19.46.52.45.46-.02.92,0,1.4,0Z"/>
      <path class="cls-2" d="M345.92,53.92c-.47,0-.94-.02-1.4,0-.33.01-.4-.25-.52-.45-.66-1.07-1.29-2.14-1.94-3.22-.23-.37-1.24-.64-1.6-.43-.2.12-.12.32-.13.49,0,.97-.05,1.93.01,2.89.04.63-.19.8-.75.71-.09-.01-.18-.01-.27,0-.47.08-.6-.12-.6-.59.02-2.81.02-5.61,0-8.42,0-.45.13-.57.56-.55,1.48.08,2.96-.13,4.43.14,1.36.25,2.1,1.13,2.14,2.52.03,1.4-.64,2.31-2.02,2.59-.51.1-.38.27-.19.55.66,1.02,1.31,2.03,1.95,3.06.13.2.32.37.33.7ZM341.9,45.71q-1.57,0-1.57,1.47c0,.31,0,.63,0,.94,0,.23.04.38.33.38.85-.01,1.71.05,2.55-.1.67-.12,1.04-.58,1.06-1.27.02-.76-.23-1.07-.97-1.31-.49-.16-.98-.07-1.39-.11Z"/>
      <path class="cls-3" d="M341.9,45.71c.42.04.91-.05,1.39.11.74.24.99.56.97,1.31-.02.69-.39,1.15-1.06,1.27-.84.15-1.7.09-2.55.1-.28,0-.33-.14-.33-.38,0-.31,0-.63,0-.94q0-1.47,1.57-1.47Z"/>
    </g>
  </g>
</svg>