<?xml version="1.0" encoding="UTF-8"?>
<svg id="Layer_1" data-name="Layer 1" xmlns="http://www.w3.org/2000/svg" viewBox="0 0 19.91 33.27">
  <defs>
    <style>
      .cls-1 {
        fill: #fff;
        fill-rule: evenodd;
        stroke-width: 0px;
      }
    </style>
  </defs>
  <path class="cls-1" d="m6.81,1.2l11.96,12.21c1.52,1.55,1.52,4.07,0,5.62l-.09.09c-1.52,1.55-3.98,1.55-5.5,0L1.14,6.82C-.38,5.27-.38,2.75,1.14,1.2,2.71-.4,5.25-.4,6.81,1.2Z"/>
  <path class="cls-1" d="m1.21,26.32l11.93-12.14c1.55-1.57,4.05-1.57,5.59,0,1.54,1.57,1.54,4.12,0,5.69l-12.01,12.22c-1.52,1.55-3.99,1.55-5.51,0-1.57-1.6-1.57-4.18,0-5.78Z"/>
</svg>