<?xml version="1.0" encoding="UTF-8"?>
<svg id="Preisbewusst_RGB_" data-name="Preisbewusst (RGB)" xmlns="http://www.w3.org/2000/svg" viewBox="0 0 422.35 205.05">
  <defs>
    <style>
      .cls-1 {
        fill: #202b78;
      }

      .cls-1, .cls-2, .cls-3 {
        fill-rule: evenodd;
      }

      .cls-1, .cls-2, .cls-3, .cls-4 {
        stroke-width: 0px;
      }

      .cls-2, .cls-4 {
        fill: #fff;
      }

      .cls-3 {
        fill: #c51718;
      }
    </style>
  </defs>
  <path class="cls-2" d="m92.66,204.96c-9,0-16.31-7.32-16.31-16.32v-47.68s-8.18,1.42-8.18,1.42c-3.31.57-6.67.87-10.01.87-28.33,0-52.41-20.29-57.26-48.24l-.03-.2c-2.66-15.32.8-30.75,9.75-43.45,8.95-12.71,22.31-21.17,37.62-23.82L201.84.87c3.31-.57,6.67-.87,10.01-.87,28.33,0,52.41,20.29,57.26,48.24l.03.2c4.16,23.98-7.06,47.13-26.51,59.31l163.41.05c4.36,0,8.46,1.7,11.54,4.78,3.08,3.08,4.78,7.18,4.77,11.54l-.02,64.63c0,8.99-7.32,16.31-16.31,16.31,0,0-313.35-.1-313.35-.1Z"/>
  <path class="cls-3" d="m49.95,37.38L203.55,10.72c26.22-4.55,51.16,13.01,55.71,39.23l.04.21c4.55,26.22-13.01,51.16-39.23,55.71l-153.59,26.66c-26.22,4.55-51.16-13.01-55.71-39.23l-.04-.21c-4.55-26.22,13.01-51.16,39.23-55.71Z"/>
  <path class="cls-1" d="m92.69,117.7l313.35.1c3.49,0,6.31,2.83,6.31,6.32l-.02,64.63c0,3.49-2.83,6.31-6.32,6.31l-313.35-.1c-3.49,0-6.31-2.83-6.31-6.32l.02-64.63c0-3.49,2.83-6.31,6.32-6.31Z"/>
  <path class="cls-4" d="m133.24,155.94c3.03-1.61,7.48-5.22,7.48-10.18,0-6.77-6.25-11.99-13.86-11.99h-15.02c-.71,0-1.23.58-1.23,1.22v42.67c-.01.64.5,1.22,1.21,1.23h15.99c7.67,0,14.05-5.21,14.06-12.43,0-5.93-5.22-9.09-8.63-10.51Zm-12.57-12.9h5.03c2.45,0,4.51,1.81,4.51,4.39,0,2.58-2.06,4.64-4.51,4.64h-5.03s0-9.03,0-9.03Zm5.86,26.62h-5.87s0-9.22,0-9.22h5.22c2.51,0,5.29,1.94,5.28,4.52,0,2.64-2.13,4.71-4.64,4.7Zm50.16-35.89h-26.69c-.71,0-1.23.57-1.23,1.22v42.67c-.01.64.5,1.22,1.21,1.23h26.69c.71,0,1.22-.57,1.23-1.22v-7.03c0-.64-.51-1.22-1.22-1.23h-17.86s0-8.71,0-8.71h14.7c.64,0,1.22-.51,1.23-1.22v-7.03c0-.64-.58-1.22-1.22-1.23h-14.7s0-8,0-8h17.86c.71,0,1.22-.57,1.23-1.22v-7.03c0-.64-.51-1.23-1.22-1.23Zm61.95.02h-7.54c-.52,0-1.03.45-1.16.9l-5.55,21.85h-.26s-9.98-22.69-9.98-22.69c-.13-.39-.52-.71-1.1-.71h-1.16c-.52,0-.9.32-1.1.71l-10,22.69h-.26s-5.54-21.85-5.54-21.85c-.13-.45-.64-.9-1.16-.9h-7.54c-.9,0-1.42.64-1.16,1.54l12.17,43.32c.13.52.64.9,1.16.9h1.03c.45,0,.9-.32,1.1-.71l11.74-26.36h.19s11.79,26.37,11.79,26.37c.19.39.64.71,1.1.71h1.03c.52,0,1.03-.39,1.16-.9l12.2-43.32c.26-.9-.26-1.55-1.16-1.55Zm44.41.01h-7.93c-.71,0-1.22.58-1.23,1.22v26.11c0,4.51-3.43,8.12-8.07,8.12-4.58,0-7.93-3.61-7.93-8.12v-26.11c0-.64-.51-1.22-1.22-1.23h-7.93c-.64,0-1.23.58-1.23,1.22v26.62c-.01,9.8,8.17,17.92,18.29,17.93,10.18,0,18.44-8.12,18.44-17.91v-26.62c0-.64-.57-1.22-1.22-1.23Zm26.04,17.74c-5.09-2.06-7.03-3.87-7.02-6.26,0-1.74,1.74-3.29,4.06-3.29,3.93,0,8.64,3.55,9.22,3.87.58.45,1.74-.13,2.19-.84l3.29-4.96c.26-.45.39-1.61-.39-2.06-1.93-1.42-7.09-4.84-13.79-4.84-9.93,0-14.89,6.44-14.89,12.82,0,7.74,6.96,12.06,12.5,14.25,4.38,1.74,6.64,3.81,6.64,6.51,0,2.26-1.87,3.87-4.45,3.87-4.25,0-8.89-3.42-9.15-3.55-.45-.32-1.68-.45-2.19.39l-3.03,5.35c-.52.9-.32,1.16.32,1.8,1.48,1.48,6.12,4.97,14.5,4.97,9.48,0,15.22-6.7,15.22-13.34,0-8.77-7.99-12.7-13.02-14.7Zm36.61.01c-5.09-2.06-7.03-3.87-7.02-6.26,0-1.74,1.74-3.29,4.06-3.29,3.93,0,8.64,3.55,9.22,3.87.58.45,1.74-.13,2.19-.84l3.29-4.96c.26-.45.39-1.61-.39-2.06-1.93-1.42-7.09-4.84-13.79-4.84-9.93,0-14.89,6.44-14.89,12.82,0,7.74,6.96,12.06,12.5,14.25,4.38,1.74,6.64,3.81,6.64,6.51,0,2.26-1.87,3.87-4.45,3.87-4.25,0-8.89-3.42-9.15-3.55-.45-.32-1.68-.45-2.19.39l-3.03,5.35c-.52.9-.32,1.16.32,1.81,1.48,1.48,6.12,4.97,14.5,4.97,9.48,0,15.22-6.7,15.22-13.34,0-8.77-7.99-12.7-13.02-14.7Zm48.67-17.71h-28.62c-.71,0-1.23.57-1.23,1.22v7.03c0,.64.51,1.22,1.22,1.23h9.22s-.01,34.43-.01,34.43c0,.64.58,1.22,1.22,1.23h7.74c.64,0,1.22-.58,1.23-1.22v-34.42s9.23,0,9.23,0c.71,0,1.22-.58,1.23-1.22v-7.03c0-.64-.51-1.22-1.22-1.23Z"/>
  <path class="cls-4" d="m70.12,59.92l-15.3,2.66c-.7.12-1.11.78-1,1.42l7.29,42.02c.11.63.72,1.12,1.42,1l7.49-1.3c.63-.11,1.11-.78,1-1.42l-2.59-14.92,6.66-1.16c7.74-1.34,13.04-8.87,11.68-16.74-1.33-7.68-8.85-12.91-16.65-11.56Zm2.73,19.14l-6.03,1.05-1.69-9.71,6.03-1.05c2.73-.47,5.37,1.16,5.83,3.83.5,2.86-1.41,5.41-4.14,5.88Zm44.83-.13c5.14-3.18,8.19-8.55,7.18-14.39-1.31-7.55-8.6-12.63-16.22-11.31l-18.98,3.29c-.7.12-1.11.78-1,1.42l7.29,42.02c.11.63.72,1.12,1.42,1l7.55-1.31c.63-.11,1.11-.78,1-1.42l-2.81-16.19,4.38-.76,11.36,15.36c.17.23.61.48,1.11.4l8.44-1.47c1.08-.19,1.35-1.28.76-2.03l-11.49-14.61Zm-6.57-6.58l-9.39,1.63-1.72-9.9,9.39-1.63c2.6-.45,5.2,1.32,5.66,3.99.46,2.67-1.34,5.46-3.94,5.92Zm50.91,7.77l-17.58,3.05-1.49-8.57,14.47-2.51c.63-.11,1.12-.72,1-1.42l-1.2-6.92c-.11-.63-.78-1.11-1.42-1l-14.47,2.51-1.37-7.87,17.58-3.05c.7-.12,1.11-.78,1-1.42l-1.2-6.92c-.11-.63-.72-1.12-1.42-1l-26.28,4.56c-.7.12-1.11.78-1,1.42l7.29,42.02c.11.63.72,1.12,1.42,1l26.28-4.56c.7-.12,1.11-.78,1-1.42l-1.2-6.92c-.11-.63-.72-1.12-1.42-1Zm11.17-38.1l-7.62,1.32c-.63.11-1.11.78-1,1.42l7.29,42.02c.11.63.78,1.11,1.42,1l7.62-1.32c.63-.11,1.11-.78,1-1.42l-7.29-42.02c-.11-.63-.78-1.11-1.42-1Zm43.44,25.35c-1.5-8.63-10.04-11.14-15.33-12.25-5.37-1.16-7.58-2.61-7.99-4.96-.3-1.71,1.15-3.53,3.44-3.93,3.87-.67,9.11,2.01,9.74,2.23.65.35,1.69-.42,2.01-1.2l2.39-5.45c.18-.49.11-1.65-.73-1.97-2.15-1.07-7.81-3.55-14.41-2.4-9.77,1.7-13.56,8.89-12.47,15.18,1.32,7.62,8.92,10.68,14.75,11.89,4.61.96,7.19,2.61,7.65,5.28.39,2.22-1.18,4.13-3.72,4.57-4.19.73-9.34-1.84-9.62-1.93-.5-.24-1.73-.16-2.09.76l-2.07,5.79c-.35.98-.12,1.2.63,1.72,1.71,1.21,6.88,3.84,15.13,2.41,9.33-1.62,13.83-9.2,12.7-15.74Z"/>
</svg>