<?xml version="1.0" encoding="UTF-8"?>
<svg id="Ebene_1" data-name="Ebene 1" xmlns="http://www.w3.org/2000/svg" viewBox="0 0 58.95 95.05">
  <defs>
    <style>
      .cls-1 {
        fill: #fff;
        stroke-width: 0px;
      }
    </style>
  </defs>
  <path class="cls-1" d="M58.56,0l-16,3.47.15,30.1c-1.8-2.58-4.11-4.42-6.93-5.51-2.85-1.04-6.11-1.17-9.76-.38-7.93,1.72-14.26,6.18-18.97,13.38C2.33,48.27-.02,57.26,0,68.03c.05,9.34,2.5,16.47,7.33,21.39,4.83,4.92,10.77,6.62,17.82,5.09,4.28-.93,7.86-2.55,10.74-4.88,2.88-2.32,5.44-5.6,7.69-9.84l.04,8.74,15.33-3.32-.39-85.22ZM40.64,64.52c-2.76,10.2-10.84,16.89-18.03,14.94-7.2-1.95-10.79-11.8-8.02-22,2.76-10.2,10.84-16.89,18.03-14.94,7.2,1.95,10.79,11.8,8.02,22Z"/>
</svg>