<?xml version="1.0" encoding="UTF-8"?>
<svg id="Layer_1" data-name="Layer 1" xmlns="http://www.w3.org/2000/svg" xmlns:xlink="http://www.w3.org/1999/xlink" viewBox="0 0 113.99 47.59">
  <defs>
    <style>
      .cls-1 {
        fill: none;
      }

      .cls-2 {
        fill: #f4ead9;
      }

      .cls-3 {
        clip-path: url(#clippath-1);
      }
    </style>
    <clipPath id="clippath-1">
      <rect class="cls-1" x="43.63" y="3.12" width="31.61" height="39.39"/>
    </clipPath>
  </defs>
  <g id="Group_101" data-name="Group 101">
    <g class="cls-3">
      <g id="Group_100" data-name="Group 100">
        <path id="Path_2" data-name="Path 2" class="cls-2" d="M59.98,14.13c1.59-.99,3.67-.5,4.66,1.08,.05,.08,.1,.17,.15,.26,1.44-1.14,3.54-.9,4.69,.54,.19,.24,.35,.5,.46,.79,.69-.52,1.55-.75,2.4-.66,1.59,.17,2.82,1.49,2.88,3.09,.02,3.78,.08,7.57-.01,11.36-.3,6.88-6.12,12.22-13,11.92-5.28-.23-9.85-3.76-11.39-8.82-1.34-4.19-2.68-8.39-4.01-12.58-.6-1.7,.29-3.56,1.99-4.16,1.7-.6,3.56,.29,4.16,1.99,.14,.44,.3,.87,.5,1.28v-.34c0-4.65,0-8.64,0-13.29-.04-1.2,.63-2.32,1.72-2.85,1.04-.61,2.34-.56,3.33,.13,.96,.59,1.52,1.65,1.48,2.77v7.49m-5.07,1.33v9.42c0,.13,0,.27-.02,.4-.07,.39-.45,.65-.84,.58-.23-.04-.42-.19-.52-.39-.05-.12-.1-.25-.13-.38-.58-1.83-1.15-3.67-1.77-5.49-.13-.36-.35-.69-.63-.95-.61-.51-1.49-.55-2.14-.08-.68,.46-.96,1.33-.68,2.1,1.36,4.29,2.71,8.58,4.11,12.86,1.92,5.78,8.15,8.91,13.93,6.99,4.51-1.5,7.56-5.72,7.55-10.47,0-2.43,0-4.87,0-7.3,0-1.13,.01-2.26,0-3.4,0-1-.83-1.8-1.83-1.79-.9,0-1.66,.68-1.77,1.57-.02,.18-.03,.36-.03,.55,0,1.49,0,2.97,0,4.45,.02,.39-.27,.72-.66,.74-.01,0-.02,0-.03,0-.39,.02-.72-.28-.74-.67,0,0,0-.01,0-.02-.01-.12,0-.24,0-.36v-5.33c0-.22,0-.44-.02-.66-.1-.99-.98-1.71-1.97-1.61-.24,.02-.47,.09-.68,.21-.61,.32-.99,.96-.96,1.65v4.45c.04,.4-.25,.76-.65,.79s-.76-.25-.79-.65c0-.05,0-.1,0-.14,0-1.88,0-3.75,0-5.62,.01-1-.78-1.82-1.78-1.84-.17,0-.35,.02-.52,.07-.83,.23-1.38,1.01-1.33,1.87v4.75c.04,.38-.24,.73-.62,.77-.02,0-.05,0-.07,0-.4,.02-.74-.29-.75-.69,0-.02,0-.05,0-.07V6.9c0-.17,0-.34-.01-.51-.13-.99-1.04-1.69-2.03-1.55-.91,.12-1.58,.9-1.57,1.82,0,3.15,0,5.65,0,8.8"/>
      </g>
    </g>
  </g>
</svg>