<svg id="Icons" xmlns="http://www.w3.org/2000/svg" viewBox="0 0 200 200">
  <defs>
    <style>
      .cls-1 {
        fill: #8c7454;
      }
    </style>
  </defs>
  <path class="cls-1" d="M111.49,110.89a150.83,150.83,0,0,1-16.15,27.65c10.75-22.61,13.24-31.06,13.24-31.06.71-1.42,1.23-2.16,2.74-.85s.88,2.85.17,4.26M148,38.47c-4.49-1.19-8.91-2.3-11.11-.09C125.79,52.74,110.32,68.21,117,87c0,2.21-1.1,4.42-2.21,6.63-1.1-2.21-3.31,0-4-1.89l-.43-.18-.64-.26-.45-.18-.7-.27-.44-.16-.81-.29-.36-.13-1.19-.39-.25-.08-1-.28-.43-.11c-.26-.08-.52-.15-.79-.21l-.47-.11-.74-.16-.49-.1-.71-.12-.48-.08-.71-.08-.45,0-.73,0H98c-.22,0-.43,0-.64,0H97c-.35,0-.69.08-1,.13-6.28,1.07-9.48,9.82-13.69,23.73l-.12.41c-1.15,1.28-.46,3.77-.83,5.61a2.27,2.27,0,0,0-.08.49c1.45,1.28-.76,2.39-1,3.41,0,.14,0,.27,0,.41-.12.8,1.62,1.52.61,2.39l-.12.22a5.77,5.77,0,0,0-.66,1.79l0,.18c-1.4,4.48-3,9.27-4.75,14.31a1.34,1.34,0,0,0,0,.63c5.26,6.66,9.68-4.38,15.22,2.16A10.77,10.77,0,0,0,93,145a9.13,9.13,0,0,0,1.82.12c6.68-6.26,12.2.37,19.84.11.36-.45.75-.91,1.15-1.37l.19-.23c-.14-2.56,2.07-1.45,2.2-3.22a1.56,1.56,0,0,1,.39-.38,1.44,1.44,0,0,1,.66-.18,1.71,1.71,0,0,0,.21-.26c-2.5-2.94,3-1.83,3-3.67.15-.16.27-.31.39-.46,1.45-1.82,2.66-3.41,3.55-4.63,3.92-5.36,7.94-10.86,7.68-16.9a13,13,0,0,0-.92-4.28c-1.84-8.35-20.62-13.87-9.57-19.39,7.82-4.21,13.34-12.35,18.18-21.21a1.07,1.07,0,0,0,.12-.27c-1.38-1.37.46-2.36,1.5-3.21a2.41,2.41,0,0,0,.32-.32,15,15,0,0,0-1.34-1.5c0-1.77,2.12-.71,3-1.39a1,1,0,0,0,.36-.89c2.16.07-.05-3.25,1.85-3.63.17-.34.34-.68.52-1,1.73-3.38,3.48-6.65,5.31-9.64,2.21-4.42-2.2-6.63-5.45-8.75m-.61,112.4c-5-.92-10.5-3.13-17.13-.92-1.11,1.1-4.42-1.11-6.63-1.11q-3.31.42-6.63.62c-.73,0-1.47.08-2.2.08-7.33-.66-14.66-2.68-20.72,1l-.52.31c-2,2.44-4.17.23-5-.59L88,150c-5.74-2.28-12,.16-18,1.18a9,9,0,0,1-1.86-.46c-1.9-.68-3.89-1.81-5.7-2a4,4,0,0,0-1.74.14c-6.63,7.74-26.51-3.31-21,4.42,2.21,4.42,11,3.32,17.86,3.26l2.07.19c3.45.31,6.88.53,10.31.66l2.4.08a34.35,34.35,0,0,1,8.12.08l.56.05c4,1.21,8.39-1,12.68-.11l.4.05a36.67,36.67,0,0,0,18.44-.85c.76-.06,1.51-.14,2.25-.25a21.76,21.76,0,0,0,2.38-.47l.48-.13a8.51,8.51,0,0,1,7.85.6l.44.21c3.23,2.16,6.55-1.16,10-.37l.49.05c2.41.26,4.71.94,7.64,1.23a2.43,2.43,0,0,1,.47-.07c2.26.21,4.47-2,6.68-.89a7.65,7.65,0,0,0-.28-2.77l.14-.27c0-.09.09-.19.14-.28,1.1-3.31-1.11-2.21-3.86-2.39"/>
</svg>
