<svg id="Icons" xmlns="http://www.w3.org/2000/svg" viewBox="0 0 200 200">
  <defs>
    <style>
      .cls-1 {
        fill: #8c7454;
      }
    </style>
  </defs>
  <path class="cls-1" d="M123.56,65A25,25,0,0,0,108,70.45c-3.23,1.37-.7,1.06.82,4.4,1.71,3.73,3.77,4.55,4.73,9.34,12.46-2.88,23.51,4.57,30.54,13.38C150.66,82.33,140.82,65,123.56,65Zm-17.4-6.27c-2.79-3.92-1.94-.51-11.33-11.61.85,6.83,3.41,11.1,9.39,15.37,0-.85,1.71-.85,2-1.3A3.84,3.84,0,0,0,106.16,58.77Zm47.46-10.91c-6.17,1.11-8.73,6.24-12.15,10.51-1.71,2.56,1.71,6,2.56,5.12C148.31,60.08,145.74,56.66,153.62,47.86ZM167.23,106c-3.86-2.49-9-5-14.11-5a2,2,0,0,0-1.71,3.42C156.53,106.09,167.86,106.43,167.23,106ZM170,75.76c-4.93-3-18.89-1.16-16.88,3.86C154.82,83.89,160.8,77.05,170,75.76Zm-46.12-37.5c-1.87.92-2.21,4.49-2.86,6.69a15.74,15.74,0,0,0-.6,3.47c.24,3.76-1.47,6.32,2.69,8a2.43,2.43,0,0,0,1.82-.87C126.64,53,124.08,48.76,123.88,38.26Zm29.82,94c-2.95,6.11.62,9-7.33,15-17.11,6-36-3.23-53.74,2.85-3.33.52-5.18,2.18-7.93,1.07C62,150.26,61.84,155,47.62,147.05c-14.2-7.7-13.73-33,.6-38.79-3.33-4.77,3.66-1.23,4.28-4.68,1.84-1.06,5.42.44,5.31-1.07,0-6.83-1.34-14,1.35-19.79,2.12-.52,2.46-3.39,3.55-5-.11-2,2.77-.14,2.66-2.25,1.94-1.27,5.58-.58,4.31-4.27C85,59.64,107,69.65,111.51,87.21c14.38-2.91,30.81,9.09,33.28,23.61-2.58,7.75,12.07,11.47,7.69,18.85C152,131.14,154.12,129.77,153.7,132.23Z"/>
</svg>
