<svg id="Icons" xmlns="http://www.w3.org/2000/svg" viewBox="0 0 200 200">
  <defs>
    <style>
      .cls-1 {
        fill: #8c7454;
      }
    </style>
  </defs>
  <path class="cls-1" d="M150.35,110.92c1,5.21,2.55,3.89-2,4.18-5.27-3.94-8.45-12.25-15.21-14.18,1.17,4,2.92,8.84,4.56,13.42a4.13,4.13,0,0,1,.33,1.43c-3,3.23,3,3.23,2.18,5.78.38.79.73,1.49,1,2.12,2.81,5.65,2.41,5.08-5.53,5.08-.85,6.82,1.7,15.79.48,22.59-2.84,4.71-3.8,3.53-8.81,2.43a96.54,96.54,0,0,0,.35-12.14c1-3.19.3-9.45-.4-12.71-5.37-1.19-2.91,3.21-3,6.33-.3,8.75-.28,29.43-9.93,16.06,1.46-6.64,1.55-15.87,1.63-22.63l-8.18-.57c3.45-8.38,9-17.92,9.63-27.15-8.08,4.89-14,21.68-25.18,15.31-.8-4.39-4.93-10.6-8.66-13,1.44,6.65-1,15.68-.36,22.36.75,8.4,4.14,14.66,3.26,21.25.29,5.68-.09,6.6-5.76,8.71l-2.89-4.4C77,146,76,142,75.72,138.05c-.2-2.82-2.58-8.37-4-10.8C71.09,133,69.41,145.36,68,151c-1,3.25-2.67,2.65-5.61,4.42L59,154a306.21,306.21,0,0,1,2.84-36.25,7.39,7.39,0,0,1,.36-1.48c.68-1,1.8-1.27,1.8-2.27s-1.51-1.24-1.85-1.48c-.32-.45-.46-1.27.25-1.45,2.35-.58-1.47-1.64-1-2.75a41.63,41.63,0,0,1-.43-4.53c-1.29,2-2.54,4.42-4,6.65-.29.44-.58.88-.88,1.31a14.15,14.15,0,0,0-1.94,2.44c-.34.37-.7.73-1.07,1.07a10.79,10.79,0,0,1-6.85,3C45,110.87,49,109,54.32,97.56c4.76-10.24,9.58-7.13,18.43-8.12,24-1.63,14.16,3.63,25.86,17.4A140.88,140.88,0,0,0,111,96.73c3.44-5.2,6.31-7.24,12.74-6.76,7.48-1.89,16.12,1.64,19.16,9,2.64,2.71,5.48,8.65,8.56,10.85M124.8,81.64c8.23-1.52,11.64-8.09,10.16-16-1.85-6.35-3.68-7.7-10.15-8.66-14.78,4-14.11,19.74,0,24.52m-52.71.18c8.23-1.52,11.63-8.09,10.15-16-1.84-6.35-3.67-7.7-10.14-8.66a17.49,17.49,0,0,0-6.46,3.16c-.34.26-1.37,1.61-1.66,1.9.29,2.07-2.24,3.36-1,4,.31.46-.4,1.61-.55,1.9C61,69,62,70,61.63,71.43A11.65,11.65,0,0,0,62,72.66c1.41,3.68,4.81,7,10.11,8.8"/>
</svg>
