<svg id="Icons" xmlns="http://www.w3.org/2000/svg" viewBox="0 0 200 200">
  <defs>
    <style>
      .cls-1 {
        fill: #8c7454;
      }
    </style>
  </defs>
  <path class="cls-1" d="M143.5,53.73l-.72.18c-5.05.05-8.43,1.74-10.41,4.46-.34.18-.69.34-1,.49a26.66,26.66,0,0,1-7.47,2.33c-.35,0-.71,0-1.07-.06a11.08,11.08,0,0,0-8.62,3.18,6.81,6.81,0,0,0-.74.94c-1,3.92-4.43,5.6-6.74,8.44a6,6,0,0,0-.62.87,9.68,9.68,0,0,0-.66,7.81c0,.39,0,.78,0,1.18a16.77,16.77,0,0,1-1,5.48q0,.64,0,1.29A13.7,13.7,0,0,0,106,96.5c.16.39.31.74.46,1,.3.61.58,1,.76,1.35.38.59.38.59,0,2s-1.12,4.11-1.56,6.4a43.67,43.67,0,0,0-.66,5.07c-.08.92-.08.92-.85-2.37s-2.34-9.88-3.67-14.83-2.44-8.29-3-10.17a19.68,19.68,0,0,1-.7-2.56c0-.22,0-.22.22-1.18a35.49,35.49,0,0,0,1-5c.06-.54.11-1.09.14-1.65l0-.86c2.37-4.5-1-7.88-2.77-12.1-.11-.37-.21-.73-.33-1.09a15.6,15.6,0,0,0-2.4-5.08,5.55,5.55,0,0,0-.49-.58A11.64,11.64,0,0,0,89,52.67L88,52.12c-4.29-1.53-4.29-6.6-11.37-5.59l-1.32-.13C73.2,46.2,71.77,46,71.56,45c-.32-1.49,2.65-2.91,2.13-4.24-.41-1-2.43-1-5-1.15C62.4,39.19,63.38,38.13,58,38,56,37.92,54,38,52.2,38l-1.07.05a44.91,44.91,0,0,1-9.68.67c3.38,0,1.69,3.38,4.93,4.2a5.94,5.94,0,0,1,.69,1c1.87,3.65-.1,8.71,2.15,10.92q.24.57.51,1.11c1.26,2.44,4.88,2.73,6.75,4.73.22.35.43.71.63,1.06a10.91,10.91,0,0,1,1.53,4.43,5.53,5.53,0,0,0,.07,1.3c.62,3.64,4.95,5.24,7.23,7.55a9,9,0,0,1,.74.89c1.59,2.15,4.37,4.69,5.61,6.63a4.12,4.12,0,0,0,.94.85c3,2,5.62-.34,7.75,3.78.4.09,2.9,2,3.79,2a10.63,10.63,0,0,0,1.07-.22c1.67-.42,2.85.6,3.78,0a13.47,13.47,0,0,0,2.22-1.92c.37-.41-1.32-2.17-2.28-4.09s-2.89-5.7-4.56-8.81a61.14,61.14,0,0,0-4.8-7.88,64.75,64.75,0,0,0-5.47-6.25c-1.67-1.7-2.93-2.88-3.56-3.47s-.63-.59.56.15a59.29,59.29,0,0,1,5.92,4.14c5.8,4.72,9.31,10.27,12.8,16.79a77.39,77.39,0,0,1,4.13,8.8c2.63,6.93,5.13,16.33,5.48,23.6.15,3,1.94,11.94.67,25,0,.22,0,.8-.07,1.32h-.47a36.35,36.35,0,0,0-16.33,5.72C70.44,151.3,78,154.66,78,154.66s19.28,0,21.26-.83,22.34.83,25.69.83.84-2.52,0-4.19-3.35-3.36-2.52-5.06-3.35-.81-5.81,0,0-3.33,1-3.26-6.84-5-6.84-5-2.64-.32-4.68-.6c.43-4.61,1.73-17.46,1.92-19.18a128.29,128.29,0,0,1,2.33-14.16,64.44,64.44,0,0,1,3.25-10.69A54,54,0,0,1,118,84.24a39.85,39.85,0,0,1,4.88-6.43,44.13,44.13,0,0,1,4.77-4.18c1-.78,1-.78.07.55s-2.77,4-4.58,7A75.48,75.48,0,0,0,118,91.23c-1.56,3.74-2.89,7.88-3.55,10s-.67,2.07.1,2.59a16.31,16.31,0,0,0,1.71,1c.25.12.51.25.79.36,3-.41,6.84.59,10.14-.39a8.42,8.42,0,0,0,1.21-.47c1.76-1.27,3.08-4.57,4.34-6.16l.75-.95c1.88-3.28,6.15-2.41,8-5.34.2-.32.43-3.34.78-4.39a9,9,0,0,1,.41-1c3.47-3.73,3.47-7.11,3.37-11.65a6.64,6.64,0,0,1-.17-1.33c-.08-3.32,2.55-4.93,4.89-7.59l.33-1c.22-.67.42-1.32.61-1.93.92-2.95,1.52-5.19,1.92-6.76.27-1.06,4.52-3.41,4.34-3.86C157.32,50.55,148.09,52.6,143.5,53.73Z"/>
</svg>
