<?xml version="1.0" encoding="UTF-8"?>
<svg id="Ebene_1" data-name="Ebene 1" xmlns="http://www.w3.org/2000/svg" viewBox="0 -474 373.32 1000">
  <defs>
    <style>
      .cls-1 {
        fill-rule: evenodd;
      }

      .cls-1, .cls-2 {
        fill: #fff;
        stroke-width: 0px;
      }
    </style>
  </defs>
  <path class="cls-1" d="M29.02,18.43l17.9-3.06-.61,15.62,31.86-5.44-6.07,16.17-26.96,4.61-2.05,28.61s-1.96,10.69,5.71,12.02c14.63,2.17,24.91-9.95,24.91-9.95l5.51,13.83s-10.92,12.08-28.13,13.25c-13.42,1.93-25.04-4.8-25.96-17.51-.37-10.28,2.05-37.44,2.05-37.44L0,53.79l5.72-16,22.18-3.79,1.13-15.57Z"/>
  <path class="cls-1" d="M126.02,10.43c-9.8-4.63-20.33-2-20.33-2,0,0-18.61,1.6-21.49,19.97l17.53-.87s.96-7.61,10.65-7.53c12.2-.94,5.95,12.39,5.95,12.39,0,0-23.98-1.16-33.36,6.99-11.94,10.5-8.86,23.35-8.86,23.35,3.89,13.49,18.75,12.54,18.75,12.54,12.18-.93,18.69-6.71,18.69-6.71l.88,4.29,15.2-.75s-1.34-6.43-.45-9.09c-.35-.44,6.12-35.91,6.12-35.91,0,0,3.66-11.64-9.28-16.67ZM92.78,57.91c-1.56-15.72,23.56-13.73,23.45-13.84.62,14.87-18.86,23.51-23.45,13.84Z"/>
  <path class="cls-2" d="M356.35,90.66l-4.91,22.92h-23.36l4.76-22.92h23.51ZM351.45,81.73h-10.42l3.72-45.53,6.1-28.87h22.47l-6.25,28.87-15.62,45.53Z"/>
  <path class="cls-1" d="M255.58,13.94c-9.04-5.11-19.29-3.33-19.29-3.33,0,0-17.89.22-21.93,17.57l16.8.4s1.45-7.2,10.7-6.45c11.72-.04,4.82,12.25,4.82,12.25,0,0-22.83-2.78-32.35,4.34-12.14,9.19-10.1,21.69-10.1,21.69,2.77,13.16,17.03,13.29,17.03,13.29,11.71-.04,18.33-5.1,18.33-5.1l.54,4.16,14.57.35s-.83-6.24.21-8.72c-.3-.44,8.36-33.88,8.36-33.88,0,0,4.31-10.86-7.7-16.58ZM220.51,56.98c-.39-15.13,23.47-11.47,23.37-11.58-.44,14.25-19.66,21.14-23.37,11.58Z"/>
  <path class="cls-1" d="M322.65,24.38c-11.73-6.31-24.82-3.75-24.82-3.75,0,0-22.94.77-27.64,23.12l21.56.06s1.67-9.27,13.55-8.55c15.02-.37,6.51,15.58,6.51,15.58,0,0-29.34-2.95-41.37,6.43-15.32,12.11-12.36,28.08-12.36,28.08,3.91,16.8,22.2,16.58,22.2,16.58,15.01-.37,23.36-7.03,23.36-7.03l.8,5.32,18.69.05s-1.24-7.98.03-11.18c-.4-.56,9.81-43.66,9.81-43.66,0,0,5.23-14.04-10.31-21.05ZM278.83,80.5c-.91-19.39,29.78-15.34,29.65-15.47-.19,18.28-24.64,27.64-29.65,15.47Z"/>
  <path class="cls-2" d="M196.04,0l-16,3.47.15,30.1c-1.8-2.58-4.11-4.42-6.93-5.51-2.85-1.04-6.11-1.17-9.76-.38-7.93,1.72-14.26,6.18-18.97,13.38-4.72,7.2-7.07,16.19-7.05,26.97.05,9.34,2.5,16.47,7.33,21.39,4.83,4.92,10.77,6.62,17.82,5.09,4.28-.93,7.86-2.55,10.74-4.88,2.88-2.32,5.44-5.6,7.69-9.84l.04,8.74,15.33-3.32-.39-85.22ZM178.13,64.52c-2.76,10.2-10.84,16.89-18.03,14.94-7.2-1.95-10.79-11.8-8.02-22,2.76-10.2,10.84-16.89,18.03-14.94,7.2,1.95,10.79,11.8,8.02,22Z"/>
</svg>