<svg id="Icons" xmlns="http://www.w3.org/2000/svg" viewBox="0 0 200 200">
  <defs>
    <style>
      .cls-1 {
        fill: #8c7454;
      }
    </style>
  </defs>
  <path class="cls-1" d="M134.35,117.19c-1.36-6.44-8.49-19-8.94-20-.08-.14-4.8-.14-3.27-.78,3.89-1.63-2.68-1.94-2.89-2.63-.35-1.15,1.5-1.8,1.26-3.27-.19-1.14-.16-1.15-.27-1.59a10.52,10.52,0,0,0-1.17-2.57,19.93,19.93,0,0,0-1.62-2.28c-.94-1.19-1.61-2-2.27-2.78l-2.59-3.18c-4-4.88-11.37-21.38-16.37-34.38-3,12-4.9,23.66-19,46-12,19-12,27.72-12,27.72-.6,1.32.93,2.69.6,4.11-.08.36,4.44,5.07,4.38,5.43-.2,1.11-4.92-2.12-5-1,0,.55,1.91,3.45,1.93,4,0,1.17-1.76,0-1.55,1.18.14.81.33,1.63.55,2.43a27.59,27.59,0,0,0,4.24,8.75,32.37,32.37,0,0,0,13.77,11.19l6.71,2c.24-2.69,5.46.72,8.42.65,5.67-.13,12.06-2.35,18-6.26,4.07-2.68,7.58-3.94,10.17-7.44C129.41,140,137.12,130.44,134.35,117.19Zm-17.84,25.1c-.49,1.67-1.69.93-3.89.85s-2.06-1.07-1.57-2.74c0,0,16.73-7.64,12.64-34.95C133.78,132.76,116.51,142.29,116.51,142.29Z"/>
</svg>
