<svg id="Icons" xmlns="http://www.w3.org/2000/svg" viewBox="0 0 200 200">
  <defs>
    <style>
      .cls-1 {
        fill: #8c7454;
      }
    </style>
  </defs>
  <path class="cls-1" d="M152.56,132.64l-1.55-3-1.26-2.46c-.66-3.08-6-3.49-7.75-5.22-1-1,5-1,1-3-2-2-7.41-2.59-6-4,3-3,8,3-6.47-21.35-.44-.73-.85-1.45-1.27-2.17a81.26,81.26,0,0,0-6.91-10.21,114.73,114.73,0,0,0-10.07-17.64C109.13,53.82,97,42,86.71,52.9a40.41,40.41,0,0,0-3.66,5.59c-.36.65-.7,1.31-1,2C80,74,68,82,64,95c-.44.91-.88,1.74-1.32,2.58-4.72,8.73-9.54,19.41-14.65,27.92-10.9,17-1.08,23.61,17,21.77,6,.63,11.26-1.33,17.82-.47,3.47.32,7.78-.83,10.84.76,7.63.29,15.76.15,22.46.77,4.41-.32,12.1-1.17,17-.76C148,150,162,146,152.56,132.64ZM97.18,75c2.36-.16,5.48.46,5.31,2.21-.95,9.79-.68,34.85-3.19,40.79-7.69,6.42-7.26-10.85-6.49-15C93.46,97.56,85.08,73.57,97.18,75Zm-1.83,60.56c-8.3-2-5.73-12.26,2.52-10.1C106.16,127.43,103.59,137.72,95.35,135.56Z"/>
</svg>
