<svg id="Icons" xmlns="http://www.w3.org/2000/svg" viewBox="0 0 200 200">
  <defs>
    <style>
      .cls-1 {
        fill: #8c7454;
      }
    </style>
  </defs>
  <path class="cls-1" d="M123.11,109.24l-7.77-1.7-7.88.25-7.81-.9L98.08,105l1.76-1.75,7.83.53,7.83.62,7.91-.88,1.54,2.89-1.8,2m-1.09,20.81-7.77-1.69-7.87.24-7.81-.9L97,124.88l1.77-1.76,7.83.54,7.83.61,7.9-.88,1.55,2.9-1.8,2m-21.19-45.7,7.76,1.69,7.88-.24,7.81.9,1.57,1.92-1.76,1.75L116.35,88l-7.83-.62-7.91.88L99.07,85.4l1.8-2M82.39,91.92l-1.7.11L75,82l7,5s6-4,14-10C87,90,82.39,91.92,82.39,91.92ZM82,111l-2.85,0L74,101l6,4s2.76-1,10-7C83,108,82,111,82,111ZM79.78,130l-1.54.13-5.27-10,6.4,4.92S84.74,121,91.9,114.88C83.93,128,79.78,130,79.78,130Zm9.16-75.57,7,1.65,7-.29,7,.86,7,.46,4.64,5.19-5.16,4.67-7-.57-7.09-.08-7-.43-7-.07L84.2,60.29l4.68-4.74m39.6,5.64c-3.85-4.24-4.81-7.9-11.22-10-8.79-.6-19.28-.91-28.06-1.78-11.8,4.92-7.2,9.42-22,9.92C61.55,63.22,63,69,62,76c-1,9,1.38,4,1.11,6.38-.06.48-1.06,2.1-1.11,2.62.7,1.41,2.77.21,2.43,1.24a1.87,1.87,0,0,1-.61.8C62,89,61,91,61.32,93.42c0,.3,0,.61,0,.92-.65,14.51-.73,32.52-2.28,36.66-2.75,12-1,17,19.62,16.41,12.17-.35,25.49,2.45,37.61,3.3,17.5.89,18.68,3,20.08-21.2l.06-1A6.91,6.91,0,0,1,136,126c0-1,1-1-.4-1.4-.26-.25-1.42-.51-1.5-.78a2.36,2.36,0,0,1,.91-2.35c.25-.24,1.53-1.46,1.84-1.66,1.38-1.8-2.85-1.81-3.57-2.14-1.28-.67,4.05-1,4.08-1.48.59-8.17,1.32-20.43,2.1-28.19,1.48-10.17,2.93-26.24-11-27.42"/>
</svg>
