<svg id="Icons" xmlns="http://www.w3.org/2000/svg" viewBox="0 0 200 200">
  <defs>
    <style>
      .cls-1 {
        fill: #8c7454;
      }
    </style>
  </defs>
  <g>
    <path class="cls-1" d="M135.46,58.06c3.71,0,4.22-.39,9.26-.39a31.1,31.1,0,0,1,9.19,1.45s1.72,1.64,1.72,3.26S153.68,65,153.68,65a74.28,74.28,0,0,1-9.2.76,91,91,0,0,0-9.21.62l-9.3-.2a8.75,8.75,0,0,1-1.81-4.66,3.37,3.37,0,0,1,2.11-3.14Z"/>
    <path class="cls-1" d="M127.09,78.44a3,3,0,0,1-1.91-2.83,7.89,7.89,0,0,1,1.64-4.2l8.39-.18s4.58.55,8.31.55a66.77,66.77,0,0,1,8.31.69s1.75.93,1.75,2.39A5.1,5.1,0,0,1,152,77.79a27.81,27.81,0,0,1-8.29,1.32c-4.55,0-5-.36-8.36-.36Z"/>
    <path class="cls-1" d="M153.59,84.77a3.1,3.1,0,0,1,2,2.84,7.64,7.64,0,0,1-1.75,4.2l-9,.18s-4.91-.56-8.91-.56a77.68,77.68,0,0,1-8.9-.68s-1.89-.93-1.89-2.39,1.67-2.94,1.67-2.94a32,32,0,0,1,8.89-1.31c4.87,0,5.37.35,9,.35Z"/>
    <path class="cls-1" d="M153.8,97.05a3.33,3.33,0,0,1,1.83,3.14,9.48,9.48,0,0,1-1.57,4.66L146,105a70.16,70.16,0,0,0-8-.61,56.46,56.46,0,0,1-8-.76,3.58,3.58,0,0,1-1.7-2.64,5.89,5.89,0,0,1,1.5-3.26,24,24,0,0,1,8-1.45c4.38,0,4.82.39,8.05.39Z"/>
    <path class="cls-1" d="M135.46,109.59c3.71,0,4.22-.39,9.26-.39a31.1,31.1,0,0,1,9.19,1.45s1.72,1.64,1.72,3.26-1.95,2.64-1.95,2.64a74.28,74.28,0,0,1-9.2.76,91,91,0,0,0-9.21.62l-9.3-.2a8.75,8.75,0,0,1-1.81-4.65,3.38,3.38,0,0,1,2.11-3.15Z"/>
    <path class="cls-1" d="M127.09,130a3.06,3.06,0,0,1-1.91-2.84,7.89,7.89,0,0,1,1.64-4.2l8.39-.18a81.91,81.91,0,0,0,8.31.56,67.73,67.73,0,0,1,8.31.68s1.75.93,1.75,2.39a5.14,5.14,0,0,1-1.55,2.94,28,28,0,0,1-8.29,1.31c-4.55,0-5-.36-8.36-.36Z"/>
    <path class="cls-1" d="M73.8,84.77a3.1,3.1,0,0,1,2,2.84,7.64,7.64,0,0,1-1.75,4.2l-9,.18s-4.91-.56-8.91-.56a77.68,77.68,0,0,1-8.9-.68s-1.89-.93-1.89-2.39,1.67-2.94,1.67-2.94A32,32,0,0,1,56,84.11c4.87,0,5.37.35,9,.35Z"/>
    <path class="cls-1" d="M74,97.05a3.33,3.33,0,0,1,1.83,3.14,9.48,9.48,0,0,1-1.57,4.66l-8.09.19a70.16,70.16,0,0,0-8-.61,56.46,56.46,0,0,1-8-.76,3.58,3.58,0,0,1-1.7-2.64A5.89,5.89,0,0,1,50,97.77a24,24,0,0,1,8-1.45c4.38,0,4.82.39,8.05.39Z"/>
    <path class="cls-1" d="M55.67,109.59c3.71,0,4.22-.39,9.26-.39a31.1,31.1,0,0,1,9.19,1.45s1.72,1.64,1.72,3.26-2,2.64-2,2.64a74.28,74.28,0,0,1-9.2.76,91,91,0,0,0-9.21.62l-9.3-.2a8.75,8.75,0,0,1-1.81-4.65,3.38,3.38,0,0,1,2.11-3.15Z"/>
    <path class="cls-1" d="M47.3,130a3.06,3.06,0,0,1-1.91-2.84,7.89,7.89,0,0,1,1.64-4.2l8.39-.18a81.91,81.91,0,0,0,8.31.56A67.73,67.73,0,0,1,72,124s1.75.93,1.75,2.39a5.14,5.14,0,0,1-1.55,2.94A28,28,0,0,1,64,130.64c-4.55,0-5-.36-8.36-.36Z"/>
    <path class="cls-1" d="M104.8,129.61c-3.59,0-4.08.35-9,.35A32,32,0,0,1,87,128.65s-1.66-1.48-1.66-2.94,1.88-2.39,1.88-2.39a77.72,77.72,0,0,1,8.91-.68c4,0,8.91-.56,8.91-.56l9,.18a7.62,7.62,0,0,1,1.76,4.2,3.1,3.1,0,0,1-2,2.84Z"/>
    <path class="cls-1" d="M105.91,117.36c-3.23,0-3.68.39-8.06.39a23.85,23.85,0,0,1-8-1.45,5.89,5.89,0,0,1-1.5-3.26,3.58,3.58,0,0,1,1.69-2.64,56.65,56.65,0,0,1,8-.76,69.05,69.05,0,0,0,8-.62l8.09.2a9.45,9.45,0,0,1,1.58,4.66A3.33,3.33,0,0,1,113.9,117Z"/>
    <path class="cls-1" d="M153.59,135.12a3.08,3.08,0,0,1,2,2.83,7.6,7.6,0,0,1-1.75,4.2l-9,.18s-4.91-.55-8.91-.55a76.58,76.58,0,0,1-8.9-.69s-1.89-.93-1.89-2.38,1.67-2.94,1.67-2.94a32,32,0,0,1,8.89-1.31c4.87,0,5.37.35,9,.35Z"/>
    <path class="cls-1" d="M73.8,135.12a3.08,3.08,0,0,1,2,2.83,7.6,7.6,0,0,1-1.75,4.2l-9,.18s-4.91-.55-8.91-.55a76.58,76.58,0,0,1-8.9-.69s-1.89-.93-1.89-2.38,1.67-2.94,1.67-2.94A32,32,0,0,1,56,134.46c4.87,0,5.37.35,9,.35Z"/>
    <path class="cls-1" d="M95.49,134.13c3.35,0,3.81-.35,8.35-.35a28,28,0,0,1,8.3,1.31,5.1,5.1,0,0,1,1.55,2.94c0,1.46-1.76,2.39-1.76,2.39a67.73,67.73,0,0,1-8.31.68,82.18,82.18,0,0,0-8.31.56l-8.39-.18a7.91,7.91,0,0,1-1.63-4.2,3.05,3.05,0,0,1,1.9-2.84Z"/>
  </g>
</svg>
