<svg id="Icons" xmlns="http://www.w3.org/2000/svg" viewBox="0 0 200 200">
  <defs>
    <style>
      .cls-1 {
        fill: #8c7454;
      }
    </style>
  </defs>
  <path class="cls-1" d="M136.11,76.13c-12.79,11.17-33.7,7.88-34.72,7.78a1.91,1.91,0,0,0-1.49.5,2,2,0,0,0-.64,1.46s-1.05,18.94-1.05,36.84v2.81a136,136,0,0,1,0,19.78v8.58c0,3.38-1.62,6.12-4.9,6.12a6,6,0,0,1-5.49-3.74,6.22,6.22,0,0,1-.47-2.37c-1.24-10.61,3-21.09-2.29-30.52-2.1,10.48,0,19.91-1.55,30.52a6.22,6.22,0,0,1-.47,2.37A6,6,0,0,1,77.55,160c-3.28,0-4.91-2.74-4.91-6.12V141.2a79.21,79.21,0,0,1,0-8.72v-4l0-4.88c0-.45-1-8.25-1-8.73,0-.17,0-.33,0-.5s.14-.42.21-.62.15-.38.23-.56l.35-.35c1.26-1.22.36-2.44-.36-3.77-.1-.19-.2-.38-.29-.57s-.33-3,.71-1.94c-.09.06,3.15,2.09-.83-3.54,0-.12,0-.24,0-.36-.19-4.08-.17-.58.12-4,0-.68,0-1.3,0-1.87A14.31,14.31,0,0,1,71.44,93a35,35,0,0,0-.86,3.43c-.14.6-.29,1.23-.47,1.86-.77,5.19-3.92,9.38-7.2,13.16l-.73,1.24c-1,1.62-1.87,3.09-2.78,4.32-.54,1.15-2.64,4.29-3.69,4.29-2.09,0-3.14-3.14-1.71-5.14,0,0,.1-.33.27-.93l.74-2.54c.21-.72.44-1.53.7-2.41,2.1-4.7,4.2-8.89,4.55-12.92.22-.77.43-1.55.64-2.32,1.83-7,3.15-14.15,6.84-20.85a7.29,7.29,0,0,1,2.92-.58,145.52,145.52,0,0,1,21.68-1.14c1,0,2.06.06,3.09.11,12.69,1.55,24.22,2.6,35.89-1.41a6.41,6.41,0,0,1,2.17.61A5.17,5.17,0,0,1,135.16,73c.41.49.79,1,1.14,1.51l.61.88-.8.7m-.17,5.81-.57.55S123.84,88.78,101,87c0,4.38,1.1,17.82,1.87,32.22.08,1.44,3.09,1.7,3.14,3.15.1,2.89.13,5.82.11,8.65s-.08,5.56-.16,8.07c0,1.41,0,2.82,0,4.24,0,.71,0,1.42-.06,2.14.1,4.15-3,11.49,2.2,12.53,3.67.85,3.95.18,5.46-1.42a7.09,7.09,0,0,0,.59-.74c2.33-5.17,1.29-11.46,1.24-16.45l-.12-1.19c-.12-1.17-.22-2.26-.27-3.22-.06-1.17-.08-2.3,0-3.38a19.64,19.64,0,0,1,.33-3.07V127.3c.15-1.84.15-3.93,1.19-5,1,0,3.15-1,3.15,1.05a26.32,26.32,0,0,0,.29,4.92c0,.25.06.5.08.76a32.26,32.26,0,0,1,0,5.19c-.09,1.25-.22,2.54-.35,3.85,0,.35,0,.71,0,1.07s0,.74,0,1.12c.07,5.1-1,9.29,1.2,14.2a9.61,9.61,0,0,0,.57,1,8.68,8.68,0,0,0,2.49,2.49c7.34,3.15,8.39-4.19,6.85-10.69v-24a2,2,0,0,1,1.92-2c1.64,0,4.18-.68,5.26-1.79a6.73,6.73,0,0,0,.59-.71c.79-2.71-1-12.53-1-14.29,0-.2,0-.4,0-.59s-.21-.55-.3-.83c-3.9-11.12,2.39.41-.13-8a12.54,12.54,0,0,1-.36-2.12,8.19,8.19,0,0,1-.06-1.74c0-.19,0-.39-.05-.6a48.84,48.84,0,0,1-.12-4.9l0-.47a19.52,19.52,0,0,0-.48-3.23M76.25,49.4A21.36,21.36,0,0,0,76,53.12c0,.9,2.12,1,2.25,1.86.17,1.09-3.2,2.21-1.26,3.86.55.46.51,1.31.82,1.9a7.24,7.24,0,0,0,3.29,3.36l.56.2a6.94,6.94,0,0,0,4.4,0c3-1.12,4.58-4.33,5.23-6.14a20.5,20.5,0,0,0,.81-10.26c-.68-3.7-2.37-6.31-4.76-7.35A6.66,6.66,0,0,0,84.06,40a7.46,7.46,0,0,0-1.83.42c-2.21.82-5,3-6,8.95m34.58,5.83c.94,5.92,3.78,8.13,6,9a7.33,7.33,0,0,0,1.83.41,6.51,6.51,0,0,0,3.26-.46c2.4-1,4.09-3.65,4.77-7.35a20.5,20.5,0,0,0-.81-10.26c-.65-1.81-2.2-5-5.23-6.14a7,7,0,0,0-4.41-.05l-.55.2a7.24,7.24,0,0,0-3.29,3.36c-.31.59-.27,1.44-.82,1.9-1.94,1.65-.14,3.11-.31,4.21-.13.84-.66.61-.68,1.51a21.34,21.34,0,0,0,.25,3.72"/>
</svg>
